<svg width="17" height="16" viewBox="0 0 17 16" fill="none" xmlns="http://www.w3.org/2000/svg">
<path d="M1.92844 16C1.46178 16 1.07011 15.8417 0.753442 15.525C0.436776 15.2083 0.278442 14.8167 0.278442 14.35C0.278442 13.8833 0.436776 13.4917 0.753442 13.175C1.07011 12.8583 1.46178 12.7 1.92844 12.7C2.39511 12.7 2.78678 12.8583 3.10344 13.175C3.42011 13.4917 3.57844 13.8833 3.57844 14.35C3.57844 14.8167 3.42011 15.2083 3.10344 15.525C2.78678 15.8417 2.39511 16 1.92844 16ZM8.27844 16C7.81178 16 7.42011 15.8417 7.10344 15.525C6.78678 15.2083 6.62844 14.8167 6.62844 14.35C6.62844 13.8833 6.78678 13.4917 7.10344 13.175C7.42011 12.8583 7.81178 12.7 8.27844 12.7C8.74511 12.7 9.13678 12.8583 9.45344 13.175C9.77011 13.4917 9.92844 13.8833 9.92844 14.35C9.92844 14.8167 9.77011 15.2083 9.45344 15.525C9.13678 15.8417 8.74511 16 8.27844 16ZM14.6284 16C14.1618 16 13.7701 15.8417 13.4534 15.525C13.1368 15.2083 12.9784 14.8167 12.9784 14.35C12.9784 13.8833 13.1368 13.4917 13.4534 13.175C13.7701 12.8583 14.1618 12.7 14.6284 12.7C15.0951 12.7 15.4868 12.8583 15.8034 13.175C16.1201 13.4917 16.2784 13.8833 16.2784 14.35C16.2784 14.8167 16.1201 15.2083 15.8034 15.525C15.4868 15.8417 15.0951 16 14.6284 16ZM1.92844 9.65C1.46178 9.65 1.07011 9.49167 0.753442 9.175C0.436776 8.85833 0.278442 8.46667 0.278442 8C0.278442 7.53333 0.436776 7.14167 0.753442 6.825C1.07011 6.50833 1.46178 6.35 1.92844 6.35C2.39511 6.35 2.78678 6.50833 3.10344 6.825C3.42011 7.14167 3.57844 7.53333 3.57844 8C3.57844 8.46667 3.42011 8.85833 3.10344 9.175C2.78678 9.49167 2.39511 9.65 1.92844 9.65ZM8.27844 9.65C7.81178 9.65 7.42011 9.49167 7.10344 9.175C6.78678 8.85833 6.62844 8.46667 6.62844 8C6.62844 7.53333 6.78678 7.14167 7.10344 6.825C7.42011 6.50833 7.81178 6.35 8.27844 6.35C8.74511 6.35 9.13678 6.50833 9.45344 6.825C9.77011 7.14167 9.92844 7.53333 9.92844 8C9.92844 8.46667 9.77011 8.85833 9.45344 9.175C9.13678 9.49167 8.74511 9.65 8.27844 9.65ZM14.6284 9.65C14.1618 9.65 13.7701 9.49167 13.4534 9.175C13.1368 8.85833 12.9784 8.46667 12.9784 8C12.9784 7.53333 13.1368 7.14167 13.4534 6.825C13.7701 6.50833 14.1618 6.35 14.6284 6.35C15.0951 6.35 15.4868 6.50833 15.8034 6.825C16.1201 7.14167 16.2784 7.53333 16.2784 8C16.2784 8.46667 16.1201 8.85833 15.8034 9.175C15.4868 9.49167 15.0951 9.65 14.6284 9.65ZM1.92844 3.3C1.46178 3.3 1.07011 3.14167 0.753442 2.825C0.436776 2.50833 0.278442 2.11667 0.278442 1.65C0.278442 1.18333 0.436776 0.791667 0.753442 0.475C1.07011 0.158333 1.46178 0 1.92844 0C2.39511 0 2.78678 0.158333 3.10344 0.475C3.42011 0.791667 3.57844 1.18333 3.57844 1.65C3.57844 2.11667 3.42011 2.50833 3.10344 2.825C2.78678 3.14167 2.39511 3.3 1.92844 3.3ZM8.27844 3.3C7.81178 3.3 7.42011 3.14167 7.10344 2.825C6.78678 2.50833 6.62844 2.11667 6.62844 1.65C6.62844 1.18333 6.78678 0.791667 7.10344 0.475C7.42011 0.158333 7.81178 0 8.27844 0C8.74511 0 9.13678 0.158333 9.45344 0.475C9.77011 0.791667 9.92844 1.18333 9.92844 1.65C9.92844 2.11667 9.77011 2.50833 9.45344 2.825C9.13678 3.14167 8.74511 3.3 8.27844 3.3ZM14.6284 3.3C14.1618 3.3 13.7701 3.14167 13.4534 2.825C13.1368 2.50833 12.9784 2.11667 12.9784 1.65C12.9784 1.18333 13.1368 0.791667 13.4534 0.475C13.7701 0.158333 14.1618 0 14.6284 0C15.0951 0 15.4868 0.158333 15.8034 0.475C16.1201 0.791667 16.2784 1.18333 16.2784 1.65C16.2784 2.11667 16.1201 2.50833 15.8034 2.825C15.4868 3.14167 15.0951 3.3 14.6284 3.3Z" fill="#052E2B"/>
</svg>
