<svg width="17" height="20" viewBox="0 0 17 20" fill="none" xmlns="http://www.w3.org/2000/svg">
<path d="M0.0423584 16.9609V15.7661H2.23208V7.74124C2.21652 6.36621 2.68322 5.0292 3.55109 3.96254C4.40117 2.88031 5.62381 2.15344 6.98066 1.92363V1.16873C6.9751 1.01064 7.00405 0.853236 7.06549 0.707471C7.12694 0.561705 7.2194 0.431075 7.33645 0.324666C7.58317 0.115072 7.89636 0 8.22009 0C8.54382 0 8.857 0.115072 9.10372 0.324666C9.22047 0.431228 9.31262 0.561927 9.37377 0.707685C9.43492 0.853443 9.46361 1.01077 9.45785 1.16873V1.91863C10.8174 2.15053 12.0433 2.87668 12.8999 3.95754C13.7756 5.02069 14.2478 6.35894 14.2331 7.73624V15.7611H16.3995V16.9559L0.0423584 16.9609ZM8.21967 19.9997C7.97232 20.002 7.72701 19.9549 7.4981 19.8611C7.26918 19.7674 7.06126 19.629 6.8865 19.4539C6.70423 19.2853 6.55951 19.0802 6.46175 18.8519C6.36398 18.6237 6.31537 18.3774 6.31907 18.1291H10.1178C10.1219 18.3762 10.0749 18.6215 9.97949 18.8496C9.88412 19.0776 9.74254 19.2834 9.56367 19.4539C9.38809 19.6309 9.17849 19.7705 8.94751 19.8643C8.71652 19.9581 8.46893 20.0042 8.21967 19.9997ZM3.4186 15.7661H13.0207V7.74124C13.0225 7.11493 12.9001 6.49448 12.6604 5.91582C12.4208 5.33716 12.0688 4.81177 11.6248 4.37006C11.1808 3.92836 10.6535 3.57911 10.0736 3.34254C9.4937 3.10596 8.87262 2.98676 8.24633 2.99183C7.61021 2.97807 6.97796 3.09422 6.38827 3.33319C5.79858 3.57217 5.26384 3.92893 4.81676 4.38166C4.36549 4.81631 4.00849 5.33917 3.76795 5.91771C3.52742 6.49625 3.4085 7.1181 3.4186 7.74457V15.7661Z" fill="#052E2B"/>
<path d="M0.0423584 16.9609V15.7661H2.23208V7.74124C2.21652 6.36621 2.68322 5.0292 3.55109 3.96254C4.40117 2.88031 5.62381 2.15344 6.98066 1.92363V1.16873C6.9751 1.01064 7.00405 0.853236 7.06549 0.707471C7.12694 0.561705 7.2194 0.431075 7.33645 0.324666C7.58317 0.115072 7.89636 0 8.22009 0C8.54382 0 8.857 0.115072 9.10372 0.324666C9.22047 0.431228 9.31262 0.561927 9.37377 0.707685C9.43492 0.853443 9.46361 1.01077 9.45785 1.16873V1.91863C10.8174 2.15053 12.0433 2.87668 12.8999 3.95754C13.7756 5.02069 14.2478 6.35894 14.2331 7.73624V15.7611H16.3995V16.9559L0.0423584 16.9609ZM8.21967 19.9997C7.97232 20.002 7.72701 19.9549 7.4981 19.8611C7.26918 19.7674 7.06126 19.629 6.8865 19.4539C6.70423 19.2853 6.55951 19.0802 6.46175 18.8519C6.36398 18.6237 6.31537 18.3774 6.31907 18.1291H10.1178C10.1219 18.3762 10.0749 18.6215 9.97949 18.8496C9.88412 19.0776 9.74254 19.2834 9.56367 19.4539C9.38809 19.6309 9.17849 19.7705 8.94751 19.8643C8.71652 19.9581 8.46893 20.0042 8.21967 19.9997ZM3.4186 15.7661H13.0207V7.74124C13.0225 7.11493 12.9001 6.49448 12.6604 5.91582C12.4208 5.33716 12.0688 4.81177 11.6248 4.37006C11.1808 3.92836 10.6535 3.57911 10.0736 3.34254C9.4937 3.10596 8.87262 2.98676 8.24633 2.99183C7.61021 2.97807 6.97796 3.09422 6.38827 3.33319C5.79858 3.57217 5.26384 3.92893 4.81676 4.38166C4.36549 4.81631 4.00849 5.33917 3.76795 5.91771C3.52742 6.49625 3.4085 7.1181 3.4186 7.74457V15.7661Z" stroke="#052E2B"/>
<path d="M16.0145 7.2959C16.0145 8.95275 14.6714 10.2959 13.0145 10.2959C11.3577 10.2959 10.0145 8.95275 10.0145 7.2959C10.0145 5.63904 11.3577 4.2959 13.0145 4.2959C14.6714 4.2959 16.0145 5.63904 16.0145 7.2959Z" fill="#FF451A" stroke="#F5F5F5"/>
</svg>
