<svg width="56" height="56" viewBox="0 0 56 56" fill="none" xmlns="http://www.w3.org/2000/svg">
<g clip-path="url(#clip0_2940_3939)">
<g filter="url(#filter0_dd_2940_3939)">
<g clip-path="url(#clip1_2940_3939)">
<rect width="56" height="56" rx="16" fill="#00704B"/>
<path d="M27.0429 27.0429H20.8571C20.5896 27.0429 20.3603 27.1331 20.1762 27.3145C19.9917 27.4964 19.9 27.7257 19.9 27.995C19.9 28.2643 19.9916 28.4948 20.1755 28.6798L20.1755 28.6798C20.3594 28.8648 20.5889 28.9571 20.8571 28.9571H27.0429V35.1429C27.0429 35.4104 27.1331 35.6397 27.3145 35.8238C27.4964 36.0083 27.7257 36.1 27.995 36.1C28.2643 36.1 28.4948 36.0084 28.6798 35.8245L28.6093 35.7536L28.6798 35.8245C28.8648 35.6406 28.9571 35.4111 28.9571 35.1429V28.9571H35.1429C35.4104 28.9571 35.6397 28.8669 35.8238 28.6855C36.0083 28.5036 36.1 28.2743 36.1 28.005C36.1 27.7357 36.0084 27.5052 35.8245 27.3202L35.7536 27.3907L35.8245 27.3202C35.6406 27.1352 35.4111 27.0429 35.1429 27.0429H28.9571V20.8571C28.9571 20.5896 28.8669 20.3603 28.6855 20.1762C28.5036 19.9917 28.2743 19.9 28.005 19.9C27.7357 19.9 27.5052 19.9916 27.3202 20.1755L27.3202 20.1755C27.1352 20.3594 27.0429 20.5889 27.0429 20.8571V27.0429Z" fill="#68DA6A" stroke="#68DA6A" stroke-width="0.2"/>
</g>
</g>
</g>
<defs>
<filter id="filter0_dd_2940_3939" x="-11" y="-7" width="78" height="78" filterUnits="userSpaceOnUse" color-interpolation-filters="sRGB">
<feFlood flood-opacity="0" result="BackgroundImageFix"/>
<feColorMatrix in="SourceAlpha" type="matrix" values="0 0 0 0 0 0 0 0 0 0 0 0 0 0 0 0 0 0 127 0" result="hardAlpha"/>
<feOffset dy="1"/>
<feGaussianBlur stdDeviation="1.5"/>
<feColorMatrix type="matrix" values="0 0 0 0 0 0 0 0 0 0 0 0 0 0 0 0 0 0 0.3 0"/>
<feBlend mode="normal" in2="BackgroundImageFix" result="effect1_dropShadow_2940_3939"/>
<feColorMatrix in="SourceAlpha" type="matrix" values="0 0 0 0 0 0 0 0 0 0 0 0 0 0 0 0 0 0 127 0" result="hardAlpha"/>
<feMorphology radius="3" operator="dilate" in="SourceAlpha" result="effect2_dropShadow_2940_3939"/>
<feOffset dy="4"/>
<feGaussianBlur stdDeviation="4"/>
<feColorMatrix type="matrix" values="0 0 0 0 0 0 0 0 0 0 0 0 0 0 0 0 0 0 0.15 0"/>
<feBlend mode="normal" in2="effect1_dropShadow_2940_3939" result="effect2_dropShadow_2940_3939"/>
<feBlend mode="normal" in="SourceGraphic" in2="effect2_dropShadow_2940_3939" result="shape"/>
</filter>
<clipPath id="clip0_2940_3939">
<rect width="56" height="56" rx="16" fill="white"/>
</clipPath>
<clipPath id="clip1_2940_3939">
<rect width="56" height="56" rx="16" fill="white"/>
</clipPath>
</defs>
</svg>
