<svg width="20" height="18" viewBox="0 0 20 18" fill="none" xmlns="http://www.w3.org/2000/svg">
<path d="M9.78446 1.30255L9.78406 1.30323L1.05862 15.9875C1.05855 15.9876 1.05848 15.9877 1.05841 15.9878C0.987088 16.1038 0.95 16.2222 0.95 16.3425C0.95 16.4628 0.987161 16.5814 1.05862 16.6974C1.20255 16.9312 1.41348 17.05 1.68592 17.05H19.1376C19.4101 17.05 19.621 16.9312 19.7649 16.6974C19.8364 16.5814 19.8735 16.4628 19.8735 16.3425C19.8735 16.2222 19.8364 16.1038 19.7651 15.9878C19.765 15.9877 19.765 15.9876 19.7649 15.9875L11.0395 1.30322L11.0391 1.30255C10.8951 1.06877 10.6842 0.95 10.4118 0.95C10.1393 0.95 9.92839 1.06877 9.78446 1.30255ZM10.5017 7.04315C10.2951 7.04315 10.121 7.10944 9.9833 7.24364C9.84551 7.37794 9.77704 7.54826 9.77704 7.75068V11.3452C9.77704 11.5476 9.84551 11.7179 9.9833 11.8522C10.121 11.9865 10.2951 12.0527 10.5017 12.0527C10.7083 12.0527 10.8824 11.9865 11.0201 11.8522C11.1579 11.7179 11.2264 11.5476 11.2264 11.3452V7.75068C11.2264 7.54826 11.1579 7.37794 11.0201 7.24364C10.8824 7.10944 10.7083 7.04315 10.5017 7.04315ZM10.5017 14.4856C10.7083 14.4856 10.8824 14.4193 11.0201 14.2851C11.1579 14.1508 11.2264 13.9805 11.2264 13.7781C11.2264 13.5757 11.1579 13.4053 11.0201 13.271C10.8824 13.1368 10.7083 13.0705 10.5017 13.0705C10.2951 13.0705 10.121 13.1368 9.9833 13.271C9.84551 13.4053 9.77704 13.5757 9.77704 13.7781C9.77704 13.9805 9.84551 14.1508 9.9833 14.2851C10.121 14.4193 10.2951 14.4856 10.5017 14.4856ZM10.4118 3.07046L17.8803 15.6349H2.94325L10.4118 3.07046Z" fill="#68DA6A" stroke="#68DA6A" stroke-width="0.1"/>
</svg>
