<svg width="18" height="18" viewBox="0 0 18 18" fill="none" xmlns="http://www.w3.org/2000/svg">
<path d="M16.5877 10.895L15.2026 10.1079C15.3422 9.36266 15.3422 8.59834 15.2026 7.8531L16.5877 7.05541C16.6619 7.00995 16.7189 6.94159 16.7499 6.86085C16.781 6.78012 16.7844 6.69152 16.7595 6.6087C16.4085 5.47522 15.8027 4.43525 14.9878 3.56685C14.9295 3.49937 14.8487 3.45479 14.7601 3.44113C14.6715 3.42748 14.5809 3.44566 14.5046 3.4924L13.1195 4.27945C12.5363 3.78682 11.8665 3.40466 11.1437 3.15205V1.5354C11.1366 1.4544 11.1036 1.37775 11.0496 1.31656C10.9955 1.25537 10.9232 1.21281 10.8431 1.19505C9.66566 0.934983 8.44486 0.934983 7.26744 1.19505C7.19207 1.21794 7.12527 1.26253 7.07556 1.32314C7.02584 1.38374 6.99546 1.45763 6.98827 1.5354V3.15205C6.26726 3.40851 5.59821 3.79028 5.01254 4.27945L3.63812 3.4924C3.56073 3.44966 3.47114 3.43377 3.38359 3.44726C3.29604 3.46075 3.21556 3.50284 3.15493 3.56685C2.34001 4.43525 1.73428 5.47522 1.38322 6.6087C1.35436 6.69129 1.35576 6.78131 1.38717 6.86298C1.41858 6.94465 1.478 7.01277 1.55502 7.05541L2.97239 7.8531C2.83278 8.59834 2.83278 9.36266 2.97239 10.1079L1.55502 10.9056C1.478 10.9482 1.41858 11.0163 1.38717 11.098C1.35576 11.1797 1.35436 11.2697 1.38322 11.3523C1.73428 12.4858 2.34001 13.5258 3.15493 14.3942C3.21654 14.4566 3.29692 14.4976 3.38402 14.511C3.47112 14.5244 3.56027 14.5096 3.63812 14.4686L5.02328 13.6815C5.60648 14.1742 6.2762 14.5563 6.999 14.8089V16.4256C6.99678 16.514 7.02551 16.6004 7.08031 16.6702C7.13511 16.74 7.21262 16.7889 7.29966 16.8085C8.46673 17.0638 9.676 17.0638 10.8431 16.8085C10.9312 16.7892 11.01 16.7407 11.0666 16.6711C11.1232 16.6016 11.1542 16.515 11.1545 16.4256V14.8089C11.8755 14.5525 12.5445 14.1707 13.1302 13.6815L14.5046 14.4686C14.5815 14.5133 14.6716 14.5302 14.7596 14.5167C14.8477 14.5031 14.9283 14.4598 14.9878 14.3942C15.8022 13.5235 16.411 12.4845 16.7703 11.3523C16.7914 11.2667 16.7852 11.1768 16.7525 11.0949C16.7198 11.0129 16.6622 10.9431 16.5877 10.895V10.895Z" stroke="#68DA6A" stroke-width="1.5" stroke-linecap="round" stroke-linejoin="round"/>
<path d="M9.81501 5.72727L9.72268 10.9084H8.73901L8.64668 5.72727H9.81501ZM9.23262 13.0675C9.03613 13.0675 8.86804 12.9988 8.72836 12.8615C8.58868 12.7218 8.52003 12.5537 8.52239 12.3572C8.52003 12.1631 8.58868 11.9974 8.72836 11.8601C8.86804 11.7204 9.03613 11.6506 9.23262 11.6506C9.42438 11.6506 9.5901 11.7204 9.72978 11.8601C9.86946 11.9974 9.94048 12.1631 9.94285 12.3572C9.94048 12.4875 9.90615 12.607 9.83987 12.7159C9.77595 12.8224 9.69072 12.9077 9.58418 12.9716C9.47765 13.0355 9.36046 13.0675 9.23262 13.0675Z" fill="#68DA6A"/>
<path d="M9.81501 5.72727L9.91499 5.72905L9.91681 5.62727H9.81501V5.72727ZM9.72268 10.9084V11.0084H9.82091L9.82266 10.9102L9.72268 10.9084ZM8.73901 10.9084L8.63903 10.9102L8.64078 11.0084H8.73901V10.9084ZM8.64668 5.72727V5.62727H8.54489L8.5467 5.72905L8.64668 5.72727ZM8.72836 12.8615L8.65765 12.9322L8.65826 12.9328L8.72836 12.8615ZM8.52239 12.3572L8.62242 12.3584L8.62239 12.356L8.52239 12.3572ZM8.72836 11.8601L8.79847 11.9314L8.79907 11.9308L8.72836 11.8601ZM9.72978 11.8601L9.65907 11.9308L9.65968 11.9314L9.72978 11.8601ZM9.94285 12.3572L10.0429 12.3591L10.0428 12.356L9.94285 12.3572ZM9.83987 12.7159L9.75444 12.6639L9.75412 12.6645L9.83987 12.7159ZM9.58418 12.9716L9.53273 12.8858H9.53273L9.58418 12.9716ZM9.71502 5.72549L9.62269 10.9066L9.82266 10.9102L9.91499 5.72905L9.71502 5.72549ZM9.72268 10.8084H8.73901V11.0084H9.72268V10.8084ZM8.839 10.9066L8.74667 5.72549L8.5467 5.72905L8.63903 10.9102L8.839 10.9066ZM8.64668 5.82727H9.81501V5.62727H8.64668V5.82727ZM9.23262 12.9675C9.06226 12.9675 8.91937 12.9091 8.79846 12.7902L8.65826 12.9328C8.8167 13.0886 9.00999 13.1675 9.23262 13.1675V12.9675ZM8.79907 12.7908C8.67833 12.6701 8.62035 12.5278 8.62239 12.3584L8.4224 12.356C8.41971 12.5796 8.49903 12.7736 8.65765 12.9322L8.79907 12.7908ZM8.62239 12.356C8.62036 12.1894 8.67802 12.0498 8.79846 11.9314L8.65826 11.7888C8.49935 11.945 8.4197 12.1368 8.4224 12.3585L8.62239 12.356ZM8.79907 11.9308C8.92011 11.8098 9.0628 11.7506 9.23262 11.7506V11.5506C9.00945 11.5506 8.81597 11.6311 8.65765 11.7894L8.79907 11.9308ZM9.23262 11.7506C9.39698 11.7506 9.53751 11.8092 9.65907 11.9308L9.80049 11.7894C9.64269 11.6316 9.45178 11.5506 9.23262 11.5506V11.7506ZM9.65968 11.9314C9.78072 12.0504 9.84081 12.191 9.84286 12.3585L10.0428 12.356C10.0401 12.1352 9.9582 11.9444 9.79988 11.7888L9.65968 11.9314ZM9.84287 12.3554C9.84081 12.4683 9.81131 12.5705 9.75445 12.6639L9.92529 12.7679C10.001 12.6435 10.0402 12.5066 10.0428 12.3591L9.84287 12.3554ZM9.75412 12.6645C9.69864 12.7569 9.62519 12.8304 9.53273 12.8858L9.63563 13.0573C9.75624 12.985 9.85325 12.888 9.92562 12.7674L9.75412 12.6645ZM9.53273 12.8858C9.44221 12.9402 9.34289 12.9675 9.23262 12.9675V13.1675C9.37804 13.1675 9.51309 13.1309 9.63563 13.0573L9.53273 12.8858Z" fill="#68DA6A"/>
</svg>
