<svg width="16" height="18" viewBox="0 0 16 18" fill="none" xmlns="http://www.w3.org/2000/svg">
<path d="M8.745 12.4113V12.432L8.75964 12.4467L13.1854 16.8724C13.2426 16.9433 13.3065 16.9934 13.3779 17.0172C13.4452 17.0397 13.5282 17.05 13.6252 17.05C13.7097 17.05 13.7857 17.0395 13.8523 17.0172C13.9237 16.9934 13.9876 16.9434 14.0448 16.8726L15.5723 15.3651L15.5725 15.3649C15.6299 15.3075 15.6739 15.2456 15.7036 15.1788C15.7338 15.1108 15.7481 15.0332 15.7481 14.9472C15.7481 14.8625 15.7376 14.7838 15.7158 14.7114C15.6924 14.6334 15.6426 14.5656 15.5706 14.5074L11.1449 10.0616L11.1302 10.0469H11.1095H9.86166H9.84068L9.82598 10.0618L8.75931 11.1486L8.745 11.1632V11.1836V12.4113ZM11.4763 2.29329L10.5356 3.25245V1.28176V1.26003L10.5197 1.24521L10.2178 0.963447L10.1823 0.930346L10.1482 0.964797L7.81358 3.31951L7.7772 3.3562L7.81506 3.39136L8.09682 3.65299L8.11121 3.66635H8.13085H10.0847L9.14169 4.62788L9.10702 4.66323L9.14203 4.69825L10.6361 6.19232L8.09073 8.7181L4.61858 5.24596V4.1195V4.09891L4.60409 4.0843L2.32988 1.78996L2.29432 1.75409L2.25881 1.79L0.487745 3.5812L0.452632 3.61671L0.488102 3.65186L2.76232 5.90595L2.77693 5.92044H2.79751H3.92397L7.41562 9.41209L6.72186 10.0871H5.0516H5.03089L5.01625 10.1018L0.630733 14.4873C0.55766 14.5464 0.508142 14.6182 0.485124 14.7026C0.46399 14.7801 0.453174 14.8549 0.453174 14.927C0.453174 15.0117 0.463757 15.0904 0.485471 15.1628C0.508668 15.2401 0.557871 15.3141 0.628824 15.385L0.629063 15.3853L2.13645 16.8726C2.19459 16.9445 2.2624 16.9943 2.34038 17.0177C2.41276 17.0394 2.49147 17.05 2.57613 17.05C2.67312 17.05 2.75611 17.0397 2.82339 17.0172C2.89484 16.9934 2.9587 16.9433 3.01588 16.8725L7.40134 12.5071L7.41607 12.4925V12.4717V10.8018L11.3309 6.86703L12.3018 7.83787L12.3375 7.87354L12.3728 7.83756L13.4645 6.72637L15.1194 8.38127L15.1633 8.42513L15.1968 8.37295C15.3199 8.18143 15.4125 7.98264 15.4743 7.77663C15.536 7.57092 15.567 7.36483 15.567 7.15849C15.567 6.8702 15.5121 6.59842 15.4019 6.34368C15.2921 6.08976 15.1408 5.87283 14.948 5.69356L11.5473 2.29295L11.5116 2.25725L11.4763 2.29329ZM10.5665 10.8722L14.6412 14.9271L13.6252 15.9431L9.56978 11.8877L10.5665 10.8722ZM5.65546 10.8318L6.67137 11.8477L2.57622 15.9231L1.58009 14.927L5.65546 10.8318Z" fill="#68DA6A" stroke="#68DA6A" stroke-width="0.1"/>
</svg>
