<svg width="16" height="16" viewBox="0 0 16 16" fill="none" xmlns="http://www.w3.org/2000/svg">
<path d="M0.578613 13.6892V15.5H15.453V13.6892C15.453 13.1993 15.3387 12.834 15.1437 12.5598C14.9321 12.2623 14.6259 12.0075 14.2035 11.8035L0.578613 13.6892ZM0.578613 13.6892C0.578613 13.1993 0.692967 12.834 0.887975 12.5598M0.578613 13.6892L0.887975 12.5598M0.887975 12.5598C1.09946 12.2624 1.40561 12.0075 1.8279 11.8036M0.887975 12.5598L1.8279 11.8036M1.8279 11.8036C2.70351 11.382 3.6423 11.0323 4.64511 10.7551C5.62318 10.4847 6.74512 10.3462 8.01582 10.3462C9.28652 10.3462 10.4085 10.4847 11.3865 10.7551C12.3892 11.0323 13.3279 11.382 14.2035 11.8035L1.8279 11.8036ZM4.74816 4.57143V4.07143H4.24816H4.00336C4.0026 4.07074 4.00175 4.06996 4.00083 4.06907C4.00175 4.06819 4.0026 4.06741 4.00336 4.06672H4.24816H4.74816V3.56672C4.74816 2.98475 4.8923 2.47478 5.17451 2.02324C5.28977 1.83882 5.41825 1.66824 5.56018 1.51126C5.57895 1.72016 5.67141 1.9043 5.81611 2.049C5.97892 2.21181 6.19165 2.30848 6.4334 2.30848C6.66784 2.30848 6.90577 2.22747 7.0834 2.02763C7.23143 1.8611 7.31017 1.6551 7.31017 1.43171V0.546921C7.34366 0.54284 7.37893 0.538805 7.41602 0.534832C7.63421 0.511455 7.84244 0.5 8.04094 0.5C8.23944 0.5 8.44767 0.511455 8.66585 0.534832C8.70294 0.538805 8.73821 0.54284 8.77171 0.546921V1.43171C8.77171 1.65511 8.85045 1.8611 8.99847 2.02763C9.17611 2.22747 9.41403 2.30848 9.64847 2.30848C9.89022 2.30848 10.103 2.21181 10.2658 2.049C10.4082 1.90653 10.5001 1.72584 10.5208 1.52092C10.6529 1.67254 10.7713 1.83667 10.8763 2.01351C11.1452 2.46633 11.2835 2.97979 11.2835 3.56672V4.06672H11.7835H12.0283C12.029 4.06741 12.0299 4.06819 12.0308 4.06907C12.0299 4.06996 12.029 4.07074 12.0283 4.07143H11.7835H11.2835V4.57143C11.2835 5.52189 10.9766 6.2895 10.3708 6.90966C9.77134 7.52343 9.00091 7.83909 8.01582 7.83909C7.03072 7.83909 6.26029 7.52343 5.66079 6.90966C5.05505 6.2895 4.74816 5.52189 4.74816 4.57143ZM10.7764 4.57143V4.07143H10.2764H5.75522H5.25522V4.57143C5.25522 5.34888 5.49227 6.02421 5.99735 6.55035C6.51302 7.0875 7.20736 7.33203 8.01582 7.33203C8.82428 7.33203 9.51862 7.0875 10.0343 6.55035C10.5394 6.02421 10.7764 5.34888 10.7764 4.57143ZM1.08568 14.4929V14.9929H1.58568H14.446H14.946V14.4929V13.6892C14.946 13.338 14.8436 13.007 14.6051 12.7404C14.4132 12.5259 14.1813 12.362 13.9151 12.2502C13.179 11.9252 12.3613 11.6146 11.463 11.318C10.5093 11.0031 9.35572 10.8532 8.01582 10.8532C6.67592 10.8532 5.52237 11.0031 4.56863 11.318C3.67036 11.6146 2.85268 11.9252 2.11657 12.2502C1.85031 12.362 1.61843 12.5259 1.42656 12.7404C1.18804 13.007 1.08568 13.338 1.08568 13.6892V14.4929Z" fill="#68DA6A" stroke="#68DA6A"/>
</svg>
