<svg width="14" height="18" viewBox="0 0 14 18" fill="none" xmlns="http://www.w3.org/2000/svg">
<path d="M6.88001 1.14347L6.87998 1.14343L6.87835 1.14485C4.84851 2.91758 3.33412 4.56695 2.33706 6.09306C1.34013 7.61898 0.838428 9.03782 0.838428 10.3485C0.838428 12.4016 1.49499 14.0348 2.81154 15.2422C4.12505 16.4468 5.64778 17.05 7.37765 17.05C9.10753 17.05 10.6303 16.4468 11.9438 15.2422C13.2603 14.0348 13.9169 12.4016 13.9169 10.3485C13.9169 9.03782 13.4152 7.61898 12.4182 6.09306C11.4212 4.56695 9.9068 2.91758 7.87696 1.14485L7.87699 1.14481L7.8753 1.14347C7.804 1.08643 7.72559 1.04011 7.64023 1.00454C7.55353 0.96842 7.4659 0.95 7.37765 0.95C7.2894 0.95 7.20177 0.96842 7.11508 1.00454C7.02971 1.04011 6.95131 1.08643 6.88001 1.14347ZM4.527 11.0495L4.52704 11.0495L4.52659 11.0475C4.49714 10.9149 4.43022 10.8067 4.32616 10.7249C4.22377 10.6445 4.11171 10.6027 3.99109 10.6027C3.82723 10.6027 3.6966 10.6672 3.6055 10.7963C3.51764 10.9207 3.48608 11.0529 3.51619 11.1898C3.7208 12.3345 4.20625 13.1691 4.97721 13.6854C5.74147 14.1972 6.53512 14.4543 7.35738 14.4543C7.5782 14.4543 7.75493 14.4166 7.88137 14.3348C8.01193 14.2503 8.07658 14.1221 8.07658 13.9582C8.07658 13.7943 8.0121 13.6637 7.88304 13.5726C7.75586 13.4828 7.57128 13.4418 7.3371 13.4418C6.78024 13.4418 6.21119 13.2662 5.62927 12.9117C5.05716 12.5631 4.6876 11.9462 4.527 11.0495ZM11.0936 14.207C10.0894 15.2246 8.85185 15.7333 7.37765 15.7333C5.90346 15.7333 4.66589 15.2246 3.66166 14.207C2.65779 13.1897 2.15516 11.9049 2.15516 10.3485C2.15516 9.29423 2.59913 8.09059 3.4954 6.73608C4.38547 5.39093 5.67908 3.96751 7.37766 2.46594C9.07623 3.96751 10.3698 5.39093 11.2599 6.73608C12.1562 8.09059 12.6002 9.29423 12.6002 10.3485C12.6002 11.9049 12.0975 13.1897 11.0936 14.207Z" fill="#68DA6A" stroke="#68DA6A" stroke-width="0.1"/>
</svg>
