<svg width="19" height="20" viewBox="0 0 19 20" fill="none" xmlns="http://www.w3.org/2000/svg">
<path d="M14.1538 14.25H17.6596C17.8721 14.25 18.0502 14.3219 18.194 14.4657C18.3377 14.6095 18.4096 14.7877 18.4096 15.0003C18.4096 15.2129 18.3377 15.391 18.194 15.5346C18.0502 15.6782 17.8721 15.75 17.6596 15.75H15.7942L18.4769 18.4327C18.6154 18.5696 18.6846 18.7406 18.6846 18.9459C18.6846 19.1512 18.6154 19.3282 18.4769 19.4769C18.3282 19.632 18.15 19.708 17.9423 19.7048C17.7346 19.7016 17.5564 19.6256 17.4077 19.4769L14.75 16.8192V18.6596C14.75 18.8721 14.6781 19.0502 14.5343 19.194C14.3905 19.3377 14.2123 19.4096 13.9997 19.4096C13.7871 19.4096 13.609 19.3377 13.4654 19.194C13.3218 19.0502 13.25 18.8721 13.25 18.6596V15.1539C13.25 14.8978 13.3366 14.6831 13.5099 14.5099C13.6831 14.3366 13.8978 14.25 14.1538 14.25ZM9.50002 2.00001V5.59998C9.50002 5.85498 9.58628 6.06873 9.75877 6.24123C9.93127 6.41373 10.145 6.49998 10.4 6.49998H14L9.50002 2.00001ZM2.30772 0.500031H9.50195C9.74582 0.500031 9.97826 0.546831 10.1993 0.640431C10.4203 0.734015 10.6128 0.862856 10.7769 1.02696L14.9731 5.22306C15.1371 5.38717 15.266 5.57973 15.3596 5.80073C15.4532 6.02175 15.5 6.25419 15.5 6.49806V11.3462C15.5 11.6023 15.4134 11.8169 15.2401 11.9902C15.0669 12.1634 14.8522 12.25 14.5961 12.25H12.1538C11.8978 12.25 11.6831 12.3369 11.5099 12.5106C11.3366 12.6843 11.25 12.8995 11.25 13.1563V18.5937C11.25 18.8505 11.1634 19.0657 10.9902 19.2394C10.8169 19.4131 10.6023 19.5 10.3462 19.5H2.30772C1.80259 19.5 1.37502 19.325 1.02502 18.975C0.675025 18.625 0.500025 18.1974 0.500025 17.6923V2.30773C0.500025 1.8026 0.675025 1.37503 1.02502 1.02503C1.37502 0.675031 1.80259 0.500031 2.30772 0.500031Z" fill="#00704B"/>
</svg>
