<svg width="18" height="20" viewBox="0 0 18 20" fill="none" xmlns="http://www.w3.org/2000/svg">
<path d="M2.30773 19.5C1.8026 19.5 1.37503 19.325 1.02503 18.975C0.675031 18.625 0.500031 18.1974 0.500031 17.6923V2.30773C0.500031 1.8026 0.675031 1.37503 1.02503 1.02503C1.37503 0.675031 1.8026 0.500031 2.30773 0.500031H9.50196C9.74297 0.500031 9.9747 0.546831 10.1971 0.640431C10.4196 0.734015 10.6128 0.862856 10.777 1.02696L14.9731 5.22306C15.1372 5.38717 15.266 5.58045 15.3596 5.80288C15.4532 6.02531 15.5 6.25704 15.5 6.49806V8.87883L7.63461 16.7192V19.5H2.30773ZM10.0865 19.4904C9.96601 19.4904 9.86056 19.4452 9.77018 19.3548C9.6798 19.2644 9.6346 19.1589 9.6346 19.0384V18.175C9.6346 18.0545 9.65896 17.9372 9.70768 17.8231C9.7564 17.709 9.82242 17.6103 9.90576 17.5269L14.4769 12.95L16.1845 14.6269L11.598 19.2192C11.5147 19.3128 11.416 19.3814 11.3019 19.425C11.1878 19.4686 11.0705 19.4904 10.95 19.4904H10.0865ZM16.8134 14.0039L15.1307 12.3116L15.8692 11.5731C16.0499 11.3923 16.266 11.3004 16.5173 11.2972C16.7685 11.2939 16.9762 11.3795 17.1403 11.5539L17.5711 12C17.7352 12.1744 17.8156 12.3862 17.8124 12.6356C17.8092 12.8849 17.7223 13.0949 17.5518 13.2654L16.8134 14.0039ZM10.4039 6.49998H14L9.50003 2.00001V5.59613C9.50003 5.85381 9.58626 6.06887 9.75871 6.24131C9.93114 6.41376 10.1462 6.49998 10.4039 6.49998Z" fill="#00704B"/>
</svg>
