<svg width="16" height="14" viewBox="0 0 16 14" fill="none" xmlns="http://www.w3.org/2000/svg">
<path d="M8.43852 7.28852L8.43859 7.28865L8.44313 7.28574L14.3 3.53655V11.5538C14.3 11.602 14.2855 11.6346 14.2601 11.6601C14.2346 11.6855 14.202 11.7 14.1538 11.7H1.84616C1.79797 11.7 1.76537 11.6855 1.73993 11.6601C1.71448 11.6346 1.69998 11.602 1.69998 11.5538V3.53841V3.53655L7.55686 7.28574L7.55679 7.28586L7.56148 7.28852C7.6292 7.32689 7.69952 7.35728 7.77239 7.37948C7.8472 7.40227 7.92317 7.41382 8 7.41382C8.07683 7.41382 8.1528 7.40227 8.22761 7.37948C8.30047 7.35728 8.3708 7.32689 8.43852 7.28852ZM0.749285 12.6507C1.04847 12.9499 1.41614 13.1 1.84616 13.1H14.1538C14.5839 13.1 14.9515 12.9499 15.2507 12.6507C15.5499 12.3515 15.7 11.9839 15.7 11.5538V2.44617C15.7 2.01615 15.5499 1.64847 15.2507 1.34929C14.9515 1.05011 14.5839 0.9 14.1538 0.9H1.84616C1.41614 0.9 1.04847 1.05011 0.749285 1.34929C0.450103 1.64847 0.299994 2.01615 0.299994 2.44617V11.5538C0.299994 11.9839 0.450103 12.3515 0.749285 12.6507ZM8 6.08142L2.06606 2.29998H13.9339L8 6.08142Z" fill="#00704B" stroke="#00704B" stroke-width="0.2"/>
</svg>
