<svg width="12" height="12" viewBox="0 0 12 12" fill="none" xmlns="http://www.w3.org/2000/svg">
<path d="M9.33333 10.6667H10.6667V1.33333H9.33333V10.6667ZM2.66667 7.33333C2.85556 7.33333 3.01389 7.26944 3.14167 7.14167C3.26944 7.01389 3.33333 6.85556 3.33333 6.66667C3.33333 6.47778 3.26944 6.31944 3.14167 6.19167C3.01389 6.06389 2.85556 6 2.66667 6C2.47778 6 2.31944 6.06389 2.19167 6.19167C2.06389 6.31944 2 6.47778 2 6.66667C2 6.85556 2.06389 7.01389 2.19167 7.14167C2.31944 7.26944 2.47778 7.33333 2.66667 7.33333ZM2.66667 9.33333C2.85556 9.33333 3.01389 9.26945 3.14167 9.14167C3.26944 9.01389 3.33333 8.85556 3.33333 8.66667C3.33333 8.47778 3.26944 8.31944 3.14167 8.19167C3.01389 8.06389 2.85556 8 2.66667 8C2.47778 8 2.31944 8.06389 2.19167 8.19167C2.06389 8.31944 2 8.47778 2 8.66667C2 8.85556 2.06389 9.01389 2.19167 9.14167C2.31944 9.26945 2.47778 9.33333 2.66667 9.33333ZM2.66667 5.33333H6.66667C6.85556 5.33333 7.01389 5.26944 7.14167 5.14167C7.26944 5.01389 7.33333 4.85556 7.33333 4.66667V3.33333C7.33333 3.14444 7.26944 2.98611 7.14167 2.85833C7.01389 2.73056 6.85556 2.66667 6.66667 2.66667H2.66667C2.47778 2.66667 2.31944 2.73056 2.19167 2.85833C2.06389 2.98611 2 3.14444 2 3.33333V4.66667C2 4.85556 2.06389 5.01389 2.19167 5.14167C2.31944 5.26944 2.47778 5.33333 2.66667 5.33333ZM4.66667 7.33333C4.85556 7.33333 5.01389 7.26944 5.14167 7.14167C5.26944 7.01389 5.33333 6.85556 5.33333 6.66667C5.33333 6.47778 5.26944 6.31944 5.14167 6.19167C5.01389 6.06389 4.85556 6 4.66667 6C4.47778 6 4.31944 6.06389 4.19167 6.19167C4.06389 6.31944 4 6.47778 4 6.66667C4 6.85556 4.06389 7.01389 4.19167 7.14167C4.31944 7.26944 4.47778 7.33333 4.66667 7.33333ZM4.66667 9.33333C4.85556 9.33333 5.01389 9.26945 5.14167 9.14167C5.26944 9.01389 5.33333 8.85556 5.33333 8.66667C5.33333 8.47778 5.26944 8.31944 5.14167 8.19167C5.01389 8.06389 4.85556 8 4.66667 8C4.47778 8 4.31944 8.06389 4.19167 8.19167C4.06389 8.31944 4 8.47778 4 8.66667C4 8.85556 4.06389 9.01389 4.19167 9.14167C4.31944 9.26945 4.47778 9.33333 4.66667 9.33333ZM6.66667 7.33333C6.85556 7.33333 7.01389 7.26944 7.14167 7.14167C7.26944 7.01389 7.33333 6.85556 7.33333 6.66667C7.33333 6.47778 7.26944 6.31944 7.14167 6.19167C7.01389 6.06389 6.85556 6 6.66667 6C6.47778 6 6.31944 6.06389 6.19167 6.19167C6.06389 6.31944 6 6.47778 6 6.66667C6 6.85556 6.06389 7.01389 6.19167 7.14167C6.31944 7.26944 6.47778 7.33333 6.66667 7.33333ZM6.66667 9.33333C6.85556 9.33333 7.01389 9.26945 7.14167 9.14167C7.26944 9.01389 7.33333 8.85556 7.33333 8.66667C7.33333 8.47778 7.26944 8.31944 7.14167 8.19167C7.01389 8.06389 6.85556 8 6.66667 8C6.47778 8 6.31944 8.06389 6.19167 8.19167C6.06389 8.31944 6 8.47778 6 8.66667C6 8.85556 6.06389 9.01389 6.19167 9.14167C6.31944 9.26945 6.47778 9.33333 6.66667 9.33333ZM8 10V2H1.33333V10H8ZM9.33333 12C9.07778 12 8.85278 11.9389 8.65833 11.8167C8.46389 11.6944 8.30556 11.5333 8.18333 11.3333H1.33333C0.966667 11.3333 0.652778 11.2028 0.391667 10.9417C0.130556 10.6806 0 10.3667 0 10V2C0 1.63333 0.130556 1.31944 0.391667 1.05833C0.652778 0.797222 0.966667 0.666667 1.33333 0.666667H8.18333C8.30556 0.466667 8.46389 0.305556 8.65833 0.183333C8.85278 0.0611111 9.07778 0 9.33333 0H10.6667C11.0333 0 11.3472 0.130556 11.6083 0.391667C11.8694 0.652778 12 0.966667 12 1.33333V10.6667C12 11.0333 11.8694 11.3472 11.6083 11.6083C11.3472 11.8694 11.0333 12 10.6667 12H9.33333Z" fill="#00704B"/>
</svg>
