<svg width="14" height="14" viewBox="0 0 14 14" fill="none" xmlns="http://www.w3.org/2000/svg">
<path d="M4.87326 1.58632L4.87324 1.58632L5.27777 3.66323L5.27868 3.66792L5.27857 3.66794C5.30799 3.87008 5.30294 4.05079 5.25807 4.20681C5.25807 4.20682 5.25807 4.20682 5.25807 4.20682L5.16196 4.17918C5.12215 4.31764 5.05066 4.43393 4.94748 4.52805L4.87326 1.58632ZM4.87326 1.58632L4.87282 1.58424C4.83097 1.3913 4.7325 1.22854 4.58008 1.09839C4.42587 0.966717 4.24563 0.9 4.04342 0.9H1.74118C1.50439 0.9 1.30182 0.980752 1.14073 1.14332C0.979696 1.30583 0.9 1.50981 0.9 1.74797C0.9 3.09427 1.21309 4.44379 1.83704 5.79575C2.46089 7.14751 3.33945 8.39056 4.47154 9.52493C5.60369 10.6594 6.84682 11.5391 8.20092 12.163C9.5551 12.7869 10.9057 13.1 12.252 13.1C12.4902 13.1 12.6942 13.0203 12.8567 12.8593C13.0192 12.6982 13.1 12.4956 13.1 12.2588V9.97017C13.1 9.77499 13.035 9.5995 12.9077 9.44721L12.831 9.51132L12.9077 9.4472C12.7811 9.29566 12.6173 9.19386 12.4201 9.14179L12.4201 9.14164L12.4145 9.14049L10.4544 8.7414L10.4544 8.74121L10.4482 8.74035C10.2655 8.71495 10.0881 8.72706 9.91684 8.77739C9.74386 8.82824 9.59507 8.91756 9.47236 9.04507C9.47217 9.04527 9.47198 9.04547 9.47179 9.04567L7.94264 10.5879C7.4656 10.3147 7.02048 10.0207 6.60719 9.70598C6.17456 9.37657 5.76617 9.01979 5.38201 8.63564L5.38176 8.6354C4.99186 8.24818 4.62965 7.84194 4.2951 7.41667C3.97701 7.01234 3.6925 6.58461 3.44155 6.13342L5.01611 4.6008L4.87326 1.58632ZM3.80995 2.16741C3.8009 2.13121 3.78507 2.10406 3.76244 2.08597C3.73982 2.06786 3.71041 2.05881 3.67421 2.05881H2.16469C2.13755 2.05881 2.11493 2.06786 2.09682 2.08597C2.07871 2.10406 2.06966 2.12669 2.06966 2.15384M3.80995 2.16741L3.71179 2.1865L3.71236 2.18944M3.80995 2.16741L4.11674 3.7448C4.12579 3.77194 4.12692 3.80135 4.12013 3.83303M3.80995 2.16741L3.71293 2.19166C3.71274 2.1909 3.71255 2.19016 3.71236 2.18944M3.71236 2.18944C3.70719 2.17015 3.70109 2.16495 3.69998 2.16406L3.69996 2.16404L3.69995 2.16404C3.69908 2.16334 3.69342 2.15881 3.67421 2.15881H2.17033M3.71236 2.18944L4.01858 3.76389L4.01775 3.76405L4.02188 3.77642C4.02455 3.78446 4.0259 3.7955 4.02235 3.81207M2.17033 2.15881C2.17001 2.15466 2.16969 2.15051 2.16938 2.14636L2.16469 2.14671L2.15806 2.14721L2.15802 2.14721L2.06966 2.15384M2.17033 2.15881H2.16469C2.16355 2.15881 2.16306 2.15889 2.16308 2.15889C2.1631 2.15889 2.16363 2.1588 2.16452 2.15844L2.16469 2.15835L2.16673 2.15729C2.16715 2.157 2.16741 2.15678 2.16751 2.1567C2.16751 2.1567 2.16752 2.15669 2.16752 2.15669C2.16752 2.15668 2.16753 2.15668 2.16753 2.15668C2.16761 2.15658 2.16784 2.15632 2.16813 2.15588L2.1692 2.15384M2.17033 2.15881L2.1692 2.15384M2.06966 2.15384H2.16465L2.16469 2.15384L2.1692 2.15384M2.06966 2.15384C2.10586 2.63619 2.18482 3.12624 2.30654 3.62398M2.1692 2.15384L2.30654 3.62398M2.30654 3.62398C2.42025 4.08896 2.57602 4.55275 2.77383 5.01535L2.85106 4.94144M2.30654 3.62398L2.40368 3.60023C2.40368 3.60023 2.40368 3.60023 2.40368 3.60023C2.5132 4.04805 2.66228 4.49511 2.85106 4.94144M2.85106 4.94144C2.86489 4.97414 2.87894 5.00684 2.8932 5.03953L4.07601 3.9077C4.09864 3.88959 4.11334 3.8647 4.12013 3.83303M2.85106 4.94144L4.00688 3.83545L4.01329 3.82932L4.01353 3.82962C4.01603 3.82762 4.01979 3.82403 4.02235 3.81207M4.12013 3.83303L4.02235 3.81207M4.12013 3.83303L4.02235 3.81208L4.02235 3.81207M9.12949 11.1819L10.2852 10.0137C10.2853 10.0136 10.2853 10.0136 10.2854 10.0135C10.2932 10.0057 10.2994 10.0007 10.304 9.99753C10.3061 9.99614 10.3076 9.99522 10.3087 9.99464C10.3105 9.99487 10.3137 9.99549 10.3186 9.99713L10.3184 9.99783L10.3303 10.0003L11.8102 10.3011C11.8298 10.3063 11.835 10.3125 11.8359 10.3136L11.8359 10.3136C11.8366 10.3145 11.8412 10.3201 11.8412 10.3394V11.8191C11.4091 11.7972 10.9433 11.7298 10.4436 11.6163C9.98917 11.5131 9.55115 11.3683 9.12949 11.1819Z" fill="#00704B" stroke="#00704B" stroke-width="0.2"/>
</svg>
