<svg width="12" height="14" viewBox="0 0 12 14" fill="none" xmlns="http://www.w3.org/2000/svg">
<path d="M5.54454 13.0299L5.57402 12.9343L5.54455 13.0299C5.69564 13.0765 5.84756 13.1 6 13.1C6.1549 13.1 6.30923 13.0753 6.46267 13.0265L6.46268 13.0265C6.61821 12.9769 6.75803 12.9023 6.8813 12.8024L6.88187 12.8019C7.53812 12.2619 8.15238 11.7066 8.7246 11.1361C9.29764 10.5648 9.7953 9.99087 10.2172 9.41428C10.6394 8.83744 10.9751 8.26637 11.2237 7.70103C11.4736 7.13272 11.6 6.57945 11.6 6.04203C11.6 4.51272 11.0445 3.26858 9.93318 2.31872C8.82642 1.37272 7.51369 0.9 6 0.9C4.4863 0.9 3.17358 1.37272 2.06682 2.31872C0.955506 3.26858 0.4 4.51272 0.4 6.04203C0.4 6.57944 0.52642 7.13371 0.776251 7.70402C1.02489 8.27163 1.36192 8.84286 1.78652 9.41776C2.21069 9.99207 2.70939 10.5658 3.28228 11.1391C3.85454 11.7118 4.46883 12.2681 5.12513 12.8082L5.12627 12.8091C5.25107 12.9088 5.39071 12.9824 5.54454 13.0299ZM9.19163 8.7335C8.45339 9.75524 7.3905 10.8253 6 11.9433C4.6095 10.8253 3.54661 9.75524 2.80837 8.7335C2.05726 7.69396 1.69298 6.7981 1.69298 6.04203C1.69298 4.88257 2.10403 3.93467 2.92615 3.1903C3.74994 2.44441 4.77224 2.06984 6 2.06984C7.22776 2.06984 8.25006 2.44441 9.07385 3.1903C9.89597 3.93467 10.307 4.88257 10.307 6.04203C10.307 6.7981 9.94274 7.69396 9.19163 8.7335ZM6.00124 7.19448C6.38711 7.19448 6.7212 7.07097 6.99787 6.82309C7.2748 6.57497 7.41719 6.27135 7.41719 5.91703C7.41719 5.56259 7.27428 5.25925 6.9964 5.01187C6.71894 4.76488 6.38454 4.6418 5.99876 4.6418C5.61289 4.6418 5.2788 4.76531 5.00213 5.01319C4.72519 5.26131 4.58281 5.56493 4.58281 5.91925C4.58281 6.27369 4.72572 6.57703 5.0036 6.82441C5.28106 7.0714 5.61546 7.19448 6.00124 7.19448Z" fill="#00704B" stroke="#00704B" stroke-width="0.2"/>
</svg>
