<svg width="20" height="18" viewBox="0 0 20 18" fill="none" xmlns="http://www.w3.org/2000/svg">
<path d="M15.5 4.42309H4.50003V1.70947C4.50003 1.45318 4.58665 1.23882 4.7599 1.06639C4.93314 0.893956 5.1478 0.807739 5.40388 0.807739H14.5922C14.8525 0.807739 15.0689 0.894355 15.2413 1.06759C15.4138 1.24082 15.5 1.45549 15.5 1.71159V4.42309ZM15.8077 9.30766C16.091 9.30766 16.3285 9.21183 16.5202 9.02016C16.7118 8.8285 16.8077 8.591 16.8077 8.30766C16.8077 8.02433 16.7118 7.78683 16.5202 7.59516C16.3285 7.4035 16.091 7.30766 15.8077 7.30766C15.5243 7.30766 15.2868 7.4035 15.0952 7.59516C14.9035 7.78683 14.8077 8.02433 14.8077 8.30766C14.8077 8.591 14.9035 8.8285 15.0952 9.02016C15.2868 9.21183 15.5243 9.30766 15.8077 9.30766ZM6.30773 16H13.6923C13.782 16 13.8558 15.9711 13.9135 15.9134C13.9712 15.8557 14 15.782 14 15.6923V11.7307H6V15.6923C6 15.782 6.02885 15.8557 6.08655 15.9134C6.14425 15.9711 6.21798 16 6.30773 16ZM6.30773 17.5C5.81061 17.5 5.38505 17.323 5.03105 16.9689C4.67704 16.6149 4.50003 16.1894 4.50003 15.6923V13.5H1.69235C1.43627 13.5 1.22161 13.4133 1.04838 13.2401C0.875145 13.0669 0.788528 12.8522 0.788528 12.5961V7.80766C0.788528 7.09935 1.03051 6.50561 1.51448 6.02644C1.99845 5.54729 2.58978 5.30771 3.28848 5.30771H16.7115C17.4198 5.30771 18.0136 5.54729 18.4928 6.02644C18.9719 6.50561 19.2115 7.09935 19.2115 7.80766V12.5961C19.2115 12.8522 19.1249 13.0669 18.9516 13.2401C18.7784 13.4133 18.5637 13.5 18.3077 13.5H15.5V15.6923C15.5 16.1894 15.323 16.6149 14.969 16.9689C14.615 17.323 14.1894 17.5 13.6923 17.5H6.30773Z" fill="#00704B"/>
</svg>
