<svg width="16" height="20" viewBox="0 0 16 20" fill="none" xmlns="http://www.w3.org/2000/svg">
<path d="M5.00001 9.74998H11C11.2125 9.74998 11.3906 9.67808 11.5344 9.53428C11.6781 9.39046 11.75 9.21227 11.75 8.99968C11.75 8.78708 11.6781 8.60899 11.5344 8.46541C11.3906 8.32182 11.2125 8.25003 11 8.25003H5.00001C4.78751 8.25003 4.60939 8.32193 4.46566 8.46573C4.32191 8.60955 4.25003 8.78775 4.25003 9.00033C4.25003 9.21293 4.32191 9.39102 4.46566 9.53461C4.60939 9.67819 4.78751 9.74998 5.00001 9.74998ZM5.00001 5.74998H11C11.2125 5.74998 11.3906 5.67808 11.5344 5.53428C11.6781 5.39046 11.75 5.21227 11.75 4.99968C11.75 4.78708 11.6781 4.60899 11.5344 4.46541C11.3906 4.32182 11.2125 4.25003 11 4.25003H5.00001C4.78751 4.25003 4.60939 4.32193 4.46566 4.46573C4.32191 4.60955 4.25003 4.78775 4.25003 5.00033C4.25003 5.21293 4.32191 5.39102 4.46566 5.53461C4.60939 5.67819 4.78751 5.74998 5.00001 5.74998ZM15.4307 18.2058L11.694 13.3556C11.4326 13.0032 11.1128 12.7308 10.7346 12.5385C10.3564 12.3462 9.94487 12.25 9.50001 12.25H0.500031V2.30773C0.500031 1.8026 0.675031 1.37503 1.02503 1.02503C1.37503 0.675031 1.8026 0.500031 2.30773 0.500031H13.6923C14.1974 0.500031 14.625 0.675031 14.975 1.02503C15.325 1.37503 15.5 1.8026 15.5 2.30773V17.6923C15.5 17.7848 15.4942 17.8727 15.4827 17.9559C15.4711 18.0391 15.4538 18.1224 15.4307 18.2058ZM2.30773 19.5C1.8026 19.5 1.37503 19.325 1.02503 18.975C0.675031 18.625 0.500031 18.1974 0.500031 17.6923V13.75H9.50001C9.70552 13.75 9.89563 13.796 10.0703 13.8879C10.245 13.9799 10.394 14.1077 10.5173 14.2712L14.3808 19.3288C14.2782 19.3878 14.1683 19.4311 14.051 19.4586C13.9336 19.4862 13.8141 19.5 13.6923 19.5H2.30773Z" fill="#00704B"/>
</svg>
