<svg width="17" height="20" viewBox="0 0 17 20" fill="none" xmlns="http://www.w3.org/2000/svg">
<path d="M7.19297 20C6.74853 20 6.33186 19.9048 5.94297 19.7143C5.55408 19.5238 5.22472 19.254 4.95487 18.9048L0.16916 12.8333C0.0421755 12.6905 -0.0133801 12.5198 0.00249292 12.3214C0.0183659 12.123 0.0897945 11.9603 0.216779 11.8333C0.534239 11.5 0.915191 11.3016 1.35964 11.2381C1.80408 11.1746 2.21678 11.2619 2.59773 11.5L4.35964 12.5714V4.7619C4.35964 4.49206 4.45091 4.26587 4.63345 4.08333C4.81599 3.90079 5.04218 3.80952 5.31202 3.80952C5.58186 3.80952 5.81202 3.90079 6.00249 4.08333C6.19297 4.26587 6.28821 4.49206 6.28821 4.7619V9.52381H13.4073C14.2009 9.52381 14.8755 9.80159 15.4311 10.3571C15.9866 10.9127 16.2644 11.5873 16.2644 12.381V16.1905C16.2644 17.2381 15.8914 18.1349 15.1454 18.881C14.3993 19.627 13.5025 20 12.4549 20H7.19297ZM8.62154 7.61905C8.3517 7.61905 8.12551 7.52778 7.94297 7.34524C7.76043 7.1627 7.66916 6.93651 7.66916 6.66667C7.66916 6.63492 7.70884 6.47619 7.78821 6.19048C7.91519 5.96825 8.01043 5.74206 8.07392 5.5119C8.13741 5.28175 8.16916 5.03175 8.16916 4.7619C8.16916 3.96825 7.89138 3.29365 7.33583 2.7381C6.78027 2.18254 6.10567 1.90476 5.31202 1.90476C4.51837 1.90476 3.84376 2.18254 3.28821 2.7381C2.73265 3.29365 2.45487 3.96825 2.45487 4.7619C2.45487 5.03175 2.48662 5.28175 2.55011 5.5119C2.6136 5.74206 2.70884 5.96825 2.83583 6.19048C2.88345 6.26984 2.91519 6.34921 2.93106 6.42857C2.94694 6.50794 2.95487 6.5873 2.95487 6.66667C2.95487 6.93651 2.86757 7.1627 2.69297 7.34524C2.51837 7.52778 2.29614 7.61905 2.0263 7.61905C1.8517 7.61905 1.689 7.57143 1.53821 7.47619C1.38741 7.38095 1.27233 7.2619 1.19297 7.11905C0.98662 6.76984 0.82789 6.39683 0.716779 6C0.605668 5.60317 0.550112 5.19048 0.550112 4.7619C0.550112 3.44444 1.0144 2.32143 1.94297 1.39286C2.87154 0.464286 3.99456 0 5.31202 0C6.62948 0 7.75249 0.464286 8.68107 1.39286C9.60964 2.32143 10.0739 3.44444 10.0739 4.7619C10.0739 5.19048 10.0184 5.60317 9.90726 6C9.79614 6.39683 9.63741 6.76984 9.43106 7.11905C9.3517 7.2619 9.24059 7.38095 9.09773 7.47619C8.95487 7.57143 8.79614 7.61905 8.62154 7.61905Z" fill="#00704B"/>
</svg>
