<svg width="13" height="13" viewBox="0 0 13 13" fill="none" xmlns="http://www.w3.org/2000/svg">
<path d="M12.2425 11.8056C12.1998 11.7563 12.1407 11.7242 12.0761 11.7153C12.0116 11.7063 11.9459 11.7211 11.8914 11.7568C11.7131 11.8966 11.4997 11.9846 11.2747 12.0111C11.0497 12.0375 10.8218 12.0015 10.6159 11.9069C10.5656 11.8821 10.4906 11.8566 10.4403 11.8318C11.0668 10.9547 11.6408 9.82702 12.2448 9.12474C12.2684 9.09777 12.286 9.06606 12.2963 9.03174C12.3067 8.99742 12.3096 8.96128 12.3048 8.92575C12.3001 8.89022 12.2878 8.85612 12.2687 8.82573C12.2497 8.79535 12.2244 8.76939 12.1945 8.74959L11.3167 8.19661V4.71295C11.3175 4.63046 11.3018 4.54863 11.2706 4.47226C11.2394 4.39588 11.1933 4.3265 11.135 4.26816C11.0766 4.20983 11.0072 4.16371 10.9309 4.13251C10.8545 4.10131 10.7727 4.08565 10.6902 4.08645H10.0637V2.00286C10.0637 1.81003 9.98706 1.62511 9.85071 1.48876C9.71437 1.35241 9.52944 1.27581 9.33662 1.27581H6.90413V0.750601C6.90413 0.684138 6.87773 0.620396 6.83073 0.573399C6.78374 0.526403 6.72 0.5 6.65353 0.5C6.58707 0.5 6.52333 0.526403 6.47633 0.573399C6.42933 0.620396 6.40293 0.684138 6.40293 0.750601V1.25255H3.9712C3.77837 1.25255 3.59345 1.32915 3.4571 1.4655C3.32075 1.60185 3.24415 1.78677 3.24415 1.9796V4.08645H2.6184C2.5359 4.08565 2.45407 4.10131 2.3777 4.13251C2.30133 4.16371 2.23194 4.20983 2.17361 4.26816C2.11527 4.3265 2.06915 4.39588 2.03795 4.47226C2.00675 4.54863 1.99109 4.63046 1.9919 4.71295V8.19661L1.11254 8.74809C1.08265 8.76788 1.05735 8.79385 1.03832 8.82423C1.01929 8.85462 1.00699 8.88872 1.00223 8.92425C0.997465 8.95978 1.00036 8.99592 1.01072 9.03024C1.02107 9.06456 1.03865 9.09627 1.06227 9.12324C1.71353 9.90055 2.16522 10.9525 2.84199 11.8551C2.64084 11.9733 2.40837 12.0272 2.17572 12.0097C1.94307 11.9921 1.72134 11.9039 1.54021 11.7568C1.49332 11.7119 1.43068 11.6871 1.36573 11.6878C1.30078 11.6884 1.23868 11.7145 1.19275 11.7605C1.14681 11.8064 1.12071 11.8685 1.12002 11.9335C1.11933 11.9984 1.14412 12.0611 1.18907 12.1079C1.50071 12.3615 1.89023 12.5 2.29202 12.5C2.6938 12.5 3.08332 12.3615 3.39496 12.1079C3.61004 11.9522 3.86882 11.8683 4.13439 11.8683C4.39995 11.8683 4.65874 11.9522 4.87381 12.1079C5.16159 12.3422 5.52244 12.468 5.89346 12.4635C6.26448 12.4589 6.62215 12.3244 6.90413 12.0832C7.3048 11.6825 8.17965 12.1335 8.17965 12.1335C8.47323 12.3262 8.81005 12.4432 9.15993 12.4738C9.50982 12.5045 9.86184 12.4479 10.1845 12.309C10.2121 12.2966 10.242 12.2902 10.2722 12.2902C10.3025 12.2902 10.3324 12.2966 10.36 12.309C10.6553 12.4591 10.9879 12.5201 11.3172 12.4845C11.6465 12.4489 11.9584 12.3184 12.2148 12.1087C12.2405 12.0937 12.2623 12.0728 12.2783 12.0477C12.2943 12.0225 12.3041 11.994 12.3068 11.9643C12.3095 11.9346 12.3051 11.9047 12.2939 11.8771C12.2828 11.8495 12.2651 11.825 12.2425 11.8056ZM3.7206 2.00286C3.7206 1.94316 3.74431 1.88591 3.78652 1.84369C3.82874 1.80148 3.88599 1.77777 3.94569 1.77777H9.30886C9.33842 1.77777 9.36769 1.78359 9.39499 1.7949C9.4223 1.80621 9.44712 1.82279 9.46802 1.84369C9.48892 1.8646 9.5055 1.88941 9.51681 1.91672C9.52812 1.94403 9.53395 1.9733 9.53395 2.00286V4.11121H3.7206V2.00286ZM2.4931 4.71295C2.49212 4.69624 2.49468 4.67951 2.50063 4.66387C2.50658 4.64822 2.51578 4.63401 2.52762 4.62217C2.53945 4.61033 2.55366 4.60114 2.56931 4.59519C2.58496 4.58924 2.60169 4.58667 2.6184 4.58765H10.6887C10.7054 4.58667 10.7221 4.58924 10.7378 4.59519C10.7534 4.60114 10.7676 4.61033 10.7794 4.62217C10.7913 4.63401 10.8005 4.64822 10.8064 4.66387C10.8124 4.67951 10.8149 4.69624 10.814 4.71295V7.87098L6.77883 5.3147C6.7371 5.29016 6.68957 5.27722 6.64115 5.27722C6.59274 5.27722 6.5452 5.29016 6.50347 5.3147L2.4931 7.87098V4.71295ZM5.17468 11.7568C4.90638 11.5487 4.58309 11.4237 4.24461 11.397C3.90612 11.3703 3.56723 11.4432 3.26966 11.6067C2.66942 10.8047 2.24175 9.82702 1.619 9.02495L6.40593 5.99222V11.8318C6.22277 11.9612 6.00096 12.0243 5.77712 12.0107C5.55328 11.997 5.34078 11.9075 5.17468 11.7568ZM8.40774 11.732C7.94621 11.4923 7.41539 11.4215 6.90713 11.5317V5.99072L11.6941 9.02345C11.0188 9.90055 10.366 11.1791 9.71402 11.9811C9.26258 12.0731 8.79311 11.983 8.40774 11.7305V11.732Z" fill="#04487F" stroke="#04487F" stroke-width="0.5"/>
</svg>
