<svg width="42" height="36" viewBox="0 0 42 36" fill="none" xmlns="http://www.w3.org/2000/svg">
<rect y="4.5" width="31" height="31" rx="15.5" fill="#020A08"/>
<path d="M13.9743 15.9985H20.021C20.1122 15.9985 20.2041 15.9991 20.2964 15.9997C20.4822 16.0008 20.6696 16.002 20.8556 15.9985H20.8663C20.9975 15.9985 21.1233 15.9464 21.216 15.8536C21.3088 15.7609 21.3609 15.6351 21.3609 15.5039C21.3609 15.3727 21.3088 15.2469 21.216 15.1541C21.1233 15.0614 20.9975 15.0093 20.8663 15.0093H14.8189C14.7277 15.0093 14.6358 15.0087 14.5435 15.0081C14.3577 15.007 14.1703 15.0058 13.9843 15.0093H13.9736C13.8424 15.0093 13.7166 15.0614 13.6238 15.1541C13.5311 15.2469 13.479 15.3727 13.479 15.5039C13.479 15.6351 13.5311 15.7609 13.6238 15.8536C13.7166 15.9464 13.8424 15.9985 13.9736 15.9985H13.9743Z" fill="#68DA6A" stroke="#68DA6A" stroke-width="0.2"/>
<path d="M10.1339 15.9994H11.7646C11.8958 15.9994 12.0216 15.9473 12.1144 15.8545C12.2072 15.7618 12.2593 15.636 12.2593 15.5048C12.2593 15.3736 12.2072 15.2478 12.1144 15.155C12.0216 15.0623 11.8958 15.0101 11.7646 15.0101H10.1339C10.0027 15.0101 9.87692 15.0623 9.78416 15.155C9.6914 15.2478 9.63929 15.3736 9.63929 15.5048C9.63929 15.636 9.6914 15.7618 9.78416 15.8545C9.87692 15.9473 10.0027 15.9994 10.1339 15.9994Z" fill="#68DA6A" stroke="#68DA6A" stroke-width="0.2"/>
<path d="M12.4212 16.0588C12.4184 16.0563 12.4155 16.0538 12.4127 16.0512C12.4037 16.0433 12.3948 16.0352 12.386 16.0268C12.3951 16.0166 12.4051 16.0071 12.4129 16.0021C12.426 15.9965 12.4497 15.9913 12.4597 15.9909C12.4665 15.9912 12.478 15.9928 12.4827 15.9938C12.4852 15.9945 12.4892 15.9957 12.492 15.9966C12.494 15.9994 12.4961 16.0029 12.4982 16.007C12.4985 16.0076 12.4988 16.0082 12.4992 16.0089C12.4992 16.0089 12.4992 16.0089 12.4992 16.009C12.4993 16.0091 12.4993 16.0092 12.4994 16.0093C12.4994 16.0094 12.4995 16.0095 12.4995 16.0096C12.5035 16.0179 12.5088 16.0324 12.5088 16.0512C12.5088 16.0643 12.5062 16.0857 12.4917 16.107C12.4916 16.1072 12.4915 16.1074 12.4913 16.1076C12.4776 16.0992 12.4641 16.0905 12.4507 16.0815C12.4491 16.0805 12.4464 16.0788 12.4431 16.0768M12.4212 16.0588C12.4165 16.055 12.4126 16.0522 12.4105 16.0512C12.4094 16.0507 12.4088 16.0507 12.4088 16.0512C12.4088 16.056 12.4274 16.0674 12.4402 16.0751M12.4212 16.0588C12.4275 16.0637 12.4353 16.0701 12.4421 16.0759C12.4421 16.0759 12.4421 16.0759 12.4421 16.0759C12.4424 16.0762 12.4428 16.0765 12.4431 16.0768M12.4212 16.0588C12.4275 16.0642 12.4338 16.0696 12.4402 16.0751M12.4402 16.0751C12.4407 16.0755 12.4412 16.0759 12.4417 16.0764C12.4448 16.079 12.4474 16.0813 12.4496 16.0832L12.4499 16.0827C12.4478 16.0809 12.4455 16.0789 12.4431 16.0768M12.4402 16.0751C12.4408 16.0754 12.4414 16.0758 12.4419 16.0761C12.4419 16.0761 12.4419 16.0761 12.4419 16.0761C12.4421 16.0762 12.4423 16.0763 12.4424 16.0764C12.4427 16.0766 12.4429 16.0767 12.4431 16.0768M13.294 14.9284C13.2907 14.9264 13.288 14.9248 13.2864 14.9237C13.273 14.9147 13.2595 14.906 13.2458 14.8976L13.3511 14.9784C13.3423 14.9701 13.3334 14.962 13.3244 14.954C13.3215 14.9515 13.3187 14.949 13.3158 14.9464M13.294 14.9284C13.2943 14.9287 13.2947 14.929 13.295 14.9293C13.295 14.9293 13.295 14.9293 13.295 14.9293C13.3018 14.9351 13.3095 14.9415 13.3158 14.9464M13.294 14.9284C13.2942 14.9285 13.2944 14.9287 13.2947 14.9288C13.2948 14.9289 13.295 14.929 13.2952 14.9291C13.2952 14.9291 13.2952 14.9291 13.2952 14.9291C13.2957 14.9294 13.2963 14.9298 13.2969 14.9301M13.294 14.9284C13.2915 14.9263 13.2892 14.9243 13.2872 14.9225L13.2875 14.9221C13.2897 14.9239 13.2923 14.9262 13.2954 14.9289C13.2959 14.9293 13.2964 14.9297 13.2969 14.9301M13.3158 14.9464C13.3206 14.9502 13.3245 14.953 13.3266 14.954C13.3277 14.9545 13.3283 14.9545 13.3283 14.954C13.3283 14.9493 13.3097 14.9379 13.2969 14.9301M13.3158 14.9464C13.3095 14.941 13.3032 14.9356 13.2969 14.9301M12.2943 15.0772C12.2924 15.0805 12.2907 15.0832 12.2896 15.0848C12.2807 15.0982 12.272 15.1117 12.2636 15.1254L12.3443 15.0201C12.336 15.0289 12.3279 15.0377 12.3199 15.0468C12.3174 15.0496 12.3149 15.0525 12.3124 15.0553C12.3075 15.0616 12.3011 15.0693 12.2952 15.0761C12.2952 15.0761 12.2952 15.0761 12.2952 15.0761C12.2949 15.0765 12.2946 15.0768 12.2943 15.0772ZM12.2943 15.0772C12.2945 15.077 12.2946 15.0767 12.2947 15.0765C12.2948 15.0763 12.2949 15.0762 12.295 15.076C12.295 15.076 12.295 15.076 12.2951 15.076C12.2954 15.0754 12.2957 15.0749 12.2961 15.0743C12.2956 15.0748 12.2952 15.0753 12.2948 15.0758C12.2921 15.0789 12.2899 15.0815 12.288 15.0837L12.2884 15.084C12.2902 15.0819 12.2922 15.0796 12.2943 15.0772ZM12.8331 17.1035C12.4812 17.0932 12.142 16.9683 11.8673 16.7472C11.5832 16.5187 11.3848 16.2008 11.3043 15.8453L11.3038 15.8431L11.3038 15.8431C11.2329 15.4943 11.2757 15.132 11.4258 14.8094L11.4262 14.8085L11.4262 14.8085C11.5635 14.5209 11.7837 14.281 12.0585 14.1197C12.3332 13.9584 12.65 13.883 12.968 13.9032L12.9695 13.9033L12.9695 13.9033C13.3164 13.9307 13.6462 14.065 13.9135 14.2876L13.9146 14.2886L13.9146 14.2886C14.1582 14.4978 14.3332 14.7755 14.4168 15.0855C14.5004 15.3954 14.4887 15.7234 14.3834 16.0267L14.3828 16.0283L14.3828 16.0283C14.2649 16.3499 14.0518 16.6278 13.7718 16.825L13.7708 16.8257L13.7708 16.8257C13.5053 17.0079 13.1907 17.1052 12.8687 17.1048M12.8331 17.1035C12.8449 17.1038 12.8568 17.1041 12.8687 17.1042L12.8687 17.1048M12.8331 17.1035C12.8449 17.1044 12.8568 17.1048 12.8687 17.1048M12.8331 17.1035L13.2133 16.9649C13.1212 17.0542 12.9979 17.1042 12.8695 17.1042H12.8689V17.1048C12.8688 17.1048 12.8688 17.1048 12.8687 17.1048M12.9584 16.1116C12.9288 16.114 12.899 16.1153 12.8692 16.1155C12.8413 16.1153 12.8134 16.1141 12.7855 16.112C12.7327 16.1017 12.6807 16.0875 12.6299 16.0697C12.5872 16.0489 12.546 16.0251 12.5066 15.9986L12.5062 15.9983L12.5021 15.9958C12.4967 15.9911 12.4907 15.9862 12.4851 15.9818C12.4679 15.9667 12.4523 15.9524 12.4373 15.937C12.4186 15.9178 12.4035 15.9014 12.3873 15.8834C12.3798 15.8719 12.3738 15.863 12.3691 15.8563C12.3656 15.8514 12.361 15.845 12.3561 15.8394C12.3555 15.8388 12.3549 15.8381 12.3541 15.8372C12.3338 15.8046 12.3153 15.7708 12.2986 15.7361C12.2819 15.6888 12.2687 15.6402 12.2593 15.5909C12.2548 15.5344 12.2546 15.4777 12.2588 15.4212C12.2692 15.3678 12.2835 15.3153 12.3015 15.2641C12.3223 15.2213 12.346 15.1801 12.3726 15.1406L12.3729 15.1403L12.3754 15.1362C12.38 15.1307 12.385 15.1248 12.3894 15.1192C12.4045 15.102 12.4187 15.0864 12.4342 15.0714C12.4534 15.0527 12.4698 15.0376 12.4878 15.0213C12.4993 15.0138 12.5082 15.0078 12.5149 15.0031C12.5197 14.9997 12.5261 14.9951 12.5318 14.9901C12.5324 14.9896 12.5331 14.989 12.5339 14.9882C12.5666 14.9679 12.6004 14.9493 12.635 14.9326C12.6824 14.916 12.7309 14.9028 12.7802 14.8933C12.8367 14.8888 12.8935 14.8887 12.95 14.8929C13.0034 14.9033 13.0559 14.9176 13.1072 14.9356C13.1499 14.9564 13.1911 14.9801 13.2305 15.0067L13.2309 15.0069L13.2349 15.0095C13.2404 15.0141 13.2463 15.019 13.2519 15.0234C13.2692 15.0385 13.2848 15.0528 13.2998 15.0682C13.3185 15.0874 13.3336 15.1038 13.3498 15.1219C13.3573 15.1334 13.3633 15.1423 13.368 15.1489C13.3715 15.1538 13.3761 15.1602 13.381 15.1658C13.3815 15.1664 13.3822 15.1672 13.383 15.168C13.4033 15.2007 13.4218 15.2344 13.4385 15.2691C13.4552 15.3164 13.4683 15.365 13.4778 15.4143C13.4823 15.4708 13.4825 15.5276 13.4783 15.5841C13.4679 15.6375 13.4536 15.69 13.4356 15.7412C13.4148 15.7839 13.391 15.8252 13.3645 15.8646L13.3642 15.865L13.3617 15.869C13.3571 15.8745 13.3521 15.8805 13.3477 15.886C13.3326 15.9033 13.3184 15.9188 13.3029 15.9339C13.2837 15.9526 13.2673 15.9677 13.2493 15.9839C13.2378 15.9914 13.2289 15.9974 13.2222 16.0021C13.2174 16.0055 13.211 16.0102 13.2053 16.0151C13.2047 16.0156 13.204 16.0163 13.2032 16.017C13.1705 16.0374 13.1368 16.0559 13.1021 16.0726C13.0552 16.0891 13.0072 16.1021 12.9584 16.1116ZM13.3451 16.0318C13.3392 16.0373 13.3334 16.0426 13.3276 16.0479L13.2942 15.9953C13.3048 15.998 13.3179 16.0031 13.3308 16.0131C13.3346 16.0196 13.3393 16.0259 13.3451 16.0318ZM12.4496 16.0832L12.4499 16.0827C12.4598 16.0914 12.4639 16.0955 12.4496 16.0832ZM12.3393 15.9791C12.3338 15.9733 12.3285 15.9675 12.3233 15.9617L12.3758 15.9283C12.3732 15.9389 12.368 15.952 12.358 15.9649C12.3516 15.9687 12.3452 15.9734 12.3393 15.9791ZM12.2524 15.5506C12.2514 15.5437 12.2505 15.5368 12.2494 15.5298L12.1564 15.5426C12.1556 15.5162 12.1556 15.4897 12.1564 15.4633L12.2494 15.4767C12.2521 15.4583 12.2545 15.4402 12.2567 15.423L12.2567 15.4227C12.259 15.4052 12.2612 15.3886 12.2636 15.3717L12.1701 15.3581C12.1701 15.3581 12.1701 15.358 12.1701 15.358C12.1702 15.3576 12.1703 15.3573 12.1704 15.3569L12.2524 15.5506ZM12.4429 15.0099C12.4323 15.0072 12.4192 15.0021 12.4063 14.9921C12.4025 14.9857 12.3978 14.9793 12.392 14.9734C12.3979 14.9679 12.4037 14.9626 12.4095 14.9573L12.4429 15.0099ZM13.3612 15.0769C13.3639 15.0664 13.3691 15.0532 13.3791 15.0404C13.3855 15.0366 13.3918 15.0318 13.3978 15.0261C13.4032 15.032 13.4086 15.0378 13.4138 15.0436L13.3612 15.0769ZM13.2872 14.9225C13.2773 14.9138 13.2731 14.9098 13.2875 14.9221L13.2872 14.9225ZM12.2884 15.084C12.2797 15.0939 12.2757 15.098 12.288 15.0837L12.2884 15.084ZM13.5667 15.6483C13.5599 15.6775 13.552 15.7064 13.543 15.7349L13.5667 15.6483Z" fill="#68DA6A" stroke="#68DA6A" stroke-width="0.2"/>
<path d="M19.1028 20.4965H20.865C20.9961 20.4965 21.1219 20.4444 21.2147 20.3516C21.3075 20.2588 21.3596 20.133 21.3596 20.0018C21.3596 19.8707 21.3075 19.7448 21.2147 19.6521C21.1219 19.5593 20.9961 19.5072 20.865 19.5072H19.1028C18.9716 19.5072 18.8458 19.5593 18.7531 19.6521C18.6603 19.7448 18.6082 19.8707 18.6082 20.0018C18.6082 20.133 18.6603 20.2588 18.7531 20.3516C18.8458 20.4444 18.9716 20.4965 19.1028 20.4965Z" fill="#68DA6A" stroke="#68DA6A" stroke-width="0.2"/>
<path d="M10.1339 20.4976H16.0614C16.1514 20.4976 16.2419 20.4982 16.3328 20.4988C16.5156 20.4999 16.6998 20.5011 16.8832 20.4976H16.8939C17.0251 20.4976 17.1509 20.4455 17.2436 20.3528C17.3364 20.26 17.3885 20.1342 17.3885 20.003C17.3885 19.8718 17.3364 19.746 17.2436 19.6532C17.1509 19.5605 17.025 19.5084 16.8939 19.5084H10.9664C10.8764 19.5084 10.7859 19.5078 10.695 19.5072C10.5122 19.5061 10.328 19.5049 10.1446 19.5084H10.1339C10.0027 19.5084 9.87693 19.5605 9.78416 19.6532C9.6914 19.746 9.63929 19.8718 9.63929 20.003C9.63929 20.1342 9.6914 20.26 9.78416 20.3528C9.87692 20.4455 10.0027 20.4976 10.1339 20.4976Z" fill="#68DA6A" stroke="#68DA6A" stroke-width="0.2"/>
<path d="M17.9606 21.601C17.6087 21.5909 17.2694 21.466 16.9946 21.2449C16.7105 21.0163 16.5121 20.6984 16.4317 20.3427L16.4312 20.3406L16.4312 20.3406C16.3603 19.9918 16.4031 19.6296 16.5532 19.3069L16.5536 19.306L16.5536 19.306C16.6909 19.0184 16.9111 18.7786 17.1859 18.6172C17.4607 18.4559 17.7774 18.3805 18.0954 18.4008L18.0969 18.4008L18.0969 18.4009C18.4438 18.4282 18.7736 18.5625 19.0409 18.7851L19.0421 18.7861L19.0421 18.7861C19.2856 18.9953 19.4606 19.273 19.5442 19.583C19.6278 19.893 19.6162 20.2209 19.5108 20.5242L19.5102 20.5258L19.5102 20.5258C19.3923 20.8474 19.1791 21.1253 18.8992 21.3225L18.8982 21.3232L18.8982 21.3232C18.6327 21.5054 18.3181 21.6027 17.9961 21.6023M17.9606 21.601C17.9724 21.6014 17.9843 21.6016 17.9961 21.6017L17.9961 21.6023M17.9606 21.601C17.9724 21.6019 17.9842 21.6023 17.9961 21.6023M17.9606 21.601L18.3407 21.4624C18.2486 21.5517 18.1254 21.6017 17.9969 21.6017H17.9963V21.6023C17.9962 21.6023 17.9962 21.6023 17.9961 21.6023M18.0858 20.6091C18.0561 20.6115 18.0264 20.6128 17.9966 20.6131C17.9687 20.6128 17.9408 20.6117 17.913 20.6096C17.8602 20.5992 17.8082 20.585 17.7574 20.5672C17.7147 20.5464 17.6734 20.5226 17.6339 20.4961L17.6336 20.4958L17.6296 20.4933C17.6241 20.4887 17.6182 20.4838 17.6126 20.4794C17.5954 20.4643 17.5797 20.45 17.5647 20.4345C17.5481 20.4175 17.5349 20.403 17.5203 20.3869C17.5183 20.3846 17.5162 20.3823 17.514 20.3799C17.5068 20.3688 17.5009 20.3602 17.4963 20.3537C17.4929 20.3489 17.4881 20.3423 17.4829 20.3365C17.4826 20.3361 17.4823 20.3358 17.4819 20.3353C17.4614 20.3024 17.4426 20.2683 17.4258 20.2332C17.4092 20.1861 17.3961 20.1379 17.3867 20.0889C17.3822 20.0321 17.382 19.9752 17.3863 19.9185C17.3966 19.8653 17.4108 19.8129 17.4288 19.7618C17.4496 19.719 17.4734 19.6777 17.5 19.6382L17.5003 19.6378L17.5028 19.6337C17.5071 19.6287 17.5116 19.6232 17.5157 19.618C17.5312 19.6005 17.5465 19.584 17.5625 19.568C17.5806 19.5499 17.5965 19.5355 17.6151 19.5189C17.6267 19.5114 17.6356 19.5054 17.6423 19.5007C17.6471 19.4972 17.6535 19.4926 17.6591 19.4877C17.6597 19.4872 17.6605 19.4865 17.6613 19.4857C17.694 19.4654 17.7277 19.4469 17.7623 19.4302C17.8097 19.4135 17.8583 19.4003 17.9076 19.3909C17.9641 19.3864 18.0209 19.3862 18.0774 19.3904C18.1308 19.4008 18.1833 19.4151 18.2345 19.4331C18.2772 19.4539 18.3185 19.4776 18.3579 19.5042L18.3583 19.5044L18.3624 19.507C18.3679 19.5117 18.3739 19.5167 18.3796 19.5211C18.3967 19.5361 18.4122 19.5504 18.4272 19.5658C18.4459 19.5849 18.461 19.6013 18.4772 19.6194C18.4847 19.6309 18.4907 19.6398 18.4954 19.6465C18.4989 19.6513 18.5035 19.6577 18.5084 19.6634C18.509 19.664 18.5096 19.6647 18.5104 19.6656C18.5307 19.6982 18.5492 19.7318 18.5659 19.7664C18.5826 19.8139 18.5957 19.8625 18.6052 19.9119C18.6097 19.9684 18.6099 20.0251 18.6057 20.0816C18.5953 20.135 18.581 20.1875 18.563 20.2389C18.5422 20.2815 18.5184 20.3227 18.4919 20.3621L18.4916 20.3625L18.4891 20.3666C18.4844 20.372 18.4795 20.378 18.4751 20.3836C18.46 20.4008 18.4458 20.4164 18.4303 20.4314C18.4112 20.4501 18.3947 20.4652 18.3767 20.4814C18.3652 20.4889 18.3563 20.4949 18.3496 20.4996C18.3448 20.5031 18.3384 20.5077 18.3328 20.5126C18.3322 20.5131 18.3315 20.5137 18.3306 20.5145C18.2979 20.5348 18.2641 20.5534 18.2294 20.5701C18.1825 20.5867 18.1345 20.5997 18.0858 20.6091ZM18.4725 20.5294C18.4666 20.5348 18.4608 20.5401 18.455 20.5454L18.4217 20.4928C18.4322 20.4955 18.4453 20.5007 18.4582 20.5106C18.462 20.5171 18.4667 20.5234 18.4725 20.5294ZM17.5033 20.4258C17.5007 20.4363 17.4956 20.4494 17.4858 20.4622C17.4792 20.466 17.4728 20.4708 17.4668 20.4766C17.4614 20.4707 17.4561 20.4649 17.4508 20.4591L17.5033 20.4258ZM17.4507 20.459L17.5034 20.4255L17.4507 20.459ZM17.3799 20.0492C17.3789 20.042 17.3779 20.0347 17.3768 20.0273L17.2838 20.0401C17.283 20.0137 17.283 19.9873 17.2838 19.9608L17.3768 19.9743C17.3795 19.9558 17.3819 19.9378 17.3841 19.9206L17.3841 19.9202C17.3864 19.9027 17.3886 19.8861 17.391 19.8692L17.2975 19.8556C17.2975 19.8556 17.2975 19.8556 17.2975 19.8555C17.2976 19.8552 17.2977 19.8548 17.2977 19.8545L17.3799 20.0492ZM17.5683 19.5069C17.5581 19.5041 17.5458 19.499 17.5337 19.4896C17.5299 19.4831 17.5251 19.4768 17.5193 19.4708C17.525 19.4655 17.5306 19.4604 17.5363 19.4553L17.5683 19.5069ZM18.4886 19.5745C18.4913 19.5639 18.4965 19.5508 18.5065 19.5379C18.5129 19.5341 18.5193 19.5294 18.5252 19.5236C18.5307 19.5295 18.536 19.5353 18.5412 19.5411L18.4886 19.5745ZM18.6122 19.9525C18.6131 19.9592 18.6141 19.9661 18.6151 19.973L18.7081 19.9601C18.7089 19.9866 18.7089 20.013 18.708 20.0394L18.6151 20.026C18.6124 20.0445 18.61 20.0626 18.6078 20.0798L18.6078 20.0801C18.6055 20.0976 18.6034 20.1142 18.6009 20.131L18.6944 20.1446C18.6944 20.1447 18.6944 20.1447 18.6944 20.1448C18.6943 20.1451 18.6942 20.1455 18.6941 20.1458L18.6122 19.9525ZM18.4228 19.4264C18.4233 19.4268 18.4239 19.4273 18.4244 19.4277L18.3732 19.3951C18.3869 19.4036 18.4004 19.4123 18.4138 19.4212C18.4154 19.4223 18.4181 19.424 18.4214 19.426C18.419 19.4238 18.4167 19.4218 18.4146 19.42L18.4149 19.4196C18.4171 19.4214 18.4197 19.4237 18.4228 19.4264ZM18.4149 19.4196L18.4146 19.42C18.4047 19.4113 18.4006 19.4073 18.4149 19.4196Z" fill="#68DA6A" stroke="#68DA6A" stroke-width="0.2"/>
<path d="M20.2728 24.993H16.0785H20.2728ZM20.2728 24.993C20.3357 24.993 20.3993 24.9934 20.4634 24.9939M20.2728 24.993L20.4634 24.9939M20.4634 24.9939C20.5931 24.9947 20.725 24.9956 20.8575 24.993M20.4634 24.9939L20.8575 24.993M20.8575 24.993H20.8656C20.9968 24.993 21.1226 24.9409 21.2153 24.8482C21.3081 24.7554 21.3602 24.6296 21.3602 24.4984C21.3602 24.3672 21.3081 24.2414 21.2153 24.1486C21.1226 24.0559 20.9968 24.0037 20.8656 24.0037H16.6712C16.6084 24.0037 16.5448 24.0033 16.4807 24.0029C16.3509 24.002 16.219 24.0012 16.0865 24.0037H16.0785C15.9473 24.0037 15.8215 24.0559 15.7287 24.1486C15.6359 24.2414 15.5838 24.3672 15.5838 24.4984C15.5838 24.6296 15.6359 24.7554 15.7287 24.8482C15.8213 24.9408 15.9469 24.9929 16.0778 24.993H20.8575Z" fill="#68DA6A" stroke="#68DA6A" stroke-width="0.2"/>
<path d="M10.1339 24.9942H13.8708C14.002 24.9942 14.1278 24.9421 14.2206 24.8493C14.3134 24.7566 14.3655 24.6308 14.3655 24.4996C14.3655 24.3684 14.3134 24.2426 14.2206 24.1498C14.1278 24.057 14.002 24.0049 13.8708 24.0049H10.1339C10.0027 24.0049 9.87693 24.057 9.78416 24.1498C9.6914 24.2426 9.63929 24.3684 9.63929 24.4996C9.63929 24.6308 9.6914 24.7566 9.78416 24.8493C9.87693 24.9421 10.0027 24.9942 10.1339 24.9942Z" fill="#68DA6A" stroke="#68DA6A" stroke-width="0.2"/>
<path d="M14.9251 26.0978C14.5776 26.085 14.2429 25.9604 13.9712 25.7418C13.6872 25.5133 13.4888 25.1954 13.4082 24.8399L13.4078 24.8377L13.4078 24.8377C13.3369 24.489 13.3797 24.1267 13.5298 23.804L13.5303 23.8031L13.5303 23.8031C13.6677 23.5157 13.8879 23.276 14.1627 23.1148C14.4374 22.9536 14.7541 22.8783 15.072 22.8985L15.0735 22.8986L15.0735 22.8986C15.4203 22.926 15.7501 23.0603 16.0175 23.2829L16.0186 23.2839L16.0186 23.2839C16.2622 23.4931 16.4372 23.7707 16.5208 24.0807C16.6043 24.3907 16.5927 24.7187 16.4873 25.022L16.4868 25.0236L16.4868 25.0236C16.3689 25.3451 16.1557 25.6231 15.8757 25.8202L15.8747 25.8209L15.8747 25.8209C15.6092 26.0031 15.2947 26.1004 14.9727 26.1001M14.9251 26.0978C14.941 26.0983 14.9568 26.0987 14.9727 26.0988L14.9727 26.1001M14.9251 26.0978C14.9409 26.0993 14.9568 26.1001 14.9727 26.1001M14.9251 26.0978L14.9728 26.0001C14.9731 26.0001 14.9733 26.0001 14.9735 26.0001C14.9735 26.0001 14.9735 26.0001 14.9735 26.0001C15.0896 26.0001 15.2046 25.9867 15.3164 25.9603C15.2244 26.0491 15.1015 26.0988 14.9735 26.0988H14.9728V26.1001C14.9728 26.1001 14.9728 26.1001 14.9727 26.1001M15.398 23.9237C15.3947 23.9217 15.3919 23.9201 15.3903 23.919C15.377 23.91 15.3634 23.9013 15.3497 23.8929L15.4551 23.9737C15.4463 23.9653 15.4374 23.9573 15.4284 23.9493C15.4255 23.9468 15.4227 23.9442 15.4198 23.9417M15.398 23.9237C15.3983 23.924 15.3986 23.9243 15.399 23.9246C15.399 23.9246 15.399 23.9246 15.399 23.9246C15.4058 23.9304 15.4135 23.9368 15.4198 23.9417M15.398 23.9237C15.3982 23.9238 15.3984 23.924 15.3986 23.9241C15.3988 23.9242 15.399 23.9243 15.3991 23.9244C15.3991 23.9244 15.3991 23.9244 15.3991 23.9244C15.3997 23.9247 15.4003 23.9251 15.4009 23.9254M15.398 23.9237C15.3955 23.9216 15.3932 23.9196 15.3912 23.9178L15.3915 23.9173C15.3936 23.9192 15.3963 23.9215 15.3994 23.9241C15.3999 23.9246 15.4004 23.925 15.4009 23.9254M15.4198 23.9417C15.4246 23.9455 15.4285 23.9483 15.4306 23.9493C15.4316 23.9498 15.4322 23.9498 15.4322 23.9493C15.4322 23.9445 15.4137 23.9332 15.4009 23.9254M15.4198 23.9417C15.4135 23.9363 15.4072 23.9309 15.4009 23.9254M14.8897 25.1073C14.8367 25.0969 14.7846 25.0828 14.7337 25.0649C14.6911 25.0441 14.6499 25.0204 14.6105 24.9938L14.6102 24.9936L14.6061 24.991C14.6007 24.9864 14.5947 24.9815 14.5892 24.9771C14.5719 24.962 14.5563 24.9477 14.5413 24.9323C14.5226 24.9131 14.5074 24.8967 14.4912 24.8786C14.4837 24.8671 14.4777 24.8582 14.473 24.8516C14.4696 24.8467 14.465 24.8403 14.4601 24.8347C14.4595 24.8341 14.4589 24.8333 14.4581 24.8325C14.4378 24.7999 14.4193 24.7662 14.4026 24.7316C14.3859 24.6842 14.3727 24.6356 14.3632 24.5863C14.3587 24.5297 14.3586 24.4729 14.3628 24.4163C14.3732 24.363 14.3875 24.3105 14.4055 24.2592C14.4263 24.2165 14.45 24.1753 14.4766 24.1359L14.4768 24.1355L14.4794 24.1315C14.484 24.1261 14.4889 24.1201 14.4933 24.1146C14.5084 24.0973 14.5227 24.0817 14.5381 24.0666C14.5573 24.0479 14.5737 24.0329 14.5917 24.0166C14.6033 24.0091 14.6122 24.0031 14.6188 23.9984C14.6237 23.995 14.6301 23.9903 14.6357 23.9854C14.6363 23.9849 14.6371 23.9843 14.6379 23.9835C14.6705 23.9632 14.7042 23.9446 14.7389 23.928C14.7862 23.9113 14.8347 23.8981 14.884 23.8886C14.9406 23.8841 14.9975 23.884 15.0541 23.8882C15.1075 23.8986 15.16 23.9129 15.2112 23.9309C15.2539 23.9517 15.2951 23.9754 15.3345 24.0019L15.3349 24.0022L15.3389 24.0048C15.3444 24.0094 15.3503 24.0143 15.3559 24.0187C15.3731 24.0338 15.3887 24.0481 15.4038 24.0635C15.4225 24.0827 15.4376 24.0991 15.4538 24.1171C15.4613 24.1287 15.4673 24.1375 15.472 24.1442C15.4754 24.1491 15.4801 24.1555 15.485 24.1611C15.4855 24.1617 15.4861 24.1624 15.4869 24.1632C15.5072 24.1959 15.5258 24.2297 15.5425 24.2645C15.5592 24.3117 15.5723 24.3602 15.5818 24.4095C15.5863 24.466 15.5864 24.5229 15.5822 24.5795C15.5718 24.6328 15.5576 24.6852 15.5396 24.7364C15.5188 24.7792 15.495 24.8204 15.4685 24.8599L15.4682 24.8602L15.4657 24.8643C15.4611 24.8697 15.4561 24.8757 15.4517 24.8812C15.4366 24.8985 15.4223 24.9141 15.4069 24.9292C15.3877 24.9479 15.3713 24.963 15.3532 24.9792C15.3417 24.9867 15.3328 24.9927 15.3262 24.9974C15.3213 25.0008 15.315 25.0054 15.3093 25.0103C15.3087 25.0109 15.308 25.0115 15.3072 25.0123C15.2745 25.0326 15.2407 25.0512 15.2061 25.0679C15.1591 25.0844 15.111 25.0975 15.0621 25.1069C15.0327 25.1093 15.0032 25.1106 14.9735 25.1108C14.9455 25.1106 14.9176 25.1094 14.8897 25.1073ZM15.449 25.0271C15.4432 25.0326 15.4374 25.0379 15.4316 25.0432L15.3982 24.9906C15.4088 24.9933 15.4219 24.9984 15.4348 25.0084C15.4386 25.0148 15.4433 25.0212 15.449 25.0271ZM14.462 24.9601C14.4556 24.964 14.4492 24.9687 14.4433 24.9744C14.4378 24.9685 14.4325 24.9628 14.4272 24.957L14.4798 24.9236C14.4771 24.9342 14.472 24.9473 14.462 24.9601ZM14.3563 24.5457C14.3554 24.5389 14.3544 24.532 14.3534 24.5251L14.2604 24.5379C14.2595 24.5115 14.2595 24.485 14.2604 24.4586L14.3534 24.472C14.3561 24.4535 14.3584 24.4355 14.3607 24.4183L14.3607 24.418C14.363 24.4004 14.3651 24.3838 14.3676 24.367L14.274 24.3534C14.2741 24.3533 14.2741 24.3533 14.2741 24.3533C14.2742 24.3529 14.2742 24.3525 14.2743 24.3522L14.3563 24.5457ZM14.5468 24.0052C14.5362 24.0025 14.5231 23.9974 14.5102 23.9874C14.5064 23.9809 14.5017 23.9746 14.496 23.9687C14.5019 23.9632 14.5076 23.9579 14.5135 23.9526L14.5468 24.0052ZM15.4652 24.0722C15.4679 24.0616 15.473 24.0485 15.483 24.0356C15.4895 24.0318 15.4958 24.0271 15.5017 24.0214C15.5072 24.0272 15.5125 24.033 15.5178 24.0388L15.4652 24.0722ZM15.3911 23.9178C15.3812 23.9091 15.3771 23.905 15.3914 23.9173L15.3911 23.9178Z" fill="#68DA6A" stroke="#68DA6A" stroke-width="0.2"/>
<rect x="21" y="0.5" width="21" height="15" rx="7.5" fill="#68DA6A"/>
<path d="M28.7536 4.22727V11.5H27.2159V5.68679H27.1733L25.5078 6.73082V5.36719L27.3082 4.22727H28.7536ZM33.6336 11.6598C33.0228 11.6574 32.4973 11.5071 32.0569 11.2088C31.619 10.9105 31.2816 10.4785 31.0449 9.91264C30.8105 9.34683 30.6945 8.66619 30.6968 7.87074C30.6968 7.07765 30.814 6.40175 31.0484 5.84304C31.2851 5.28433 31.6225 4.85937 32.0605 4.56818C32.5008 4.27462 33.0252 4.12784 33.6336 4.12784C34.2421 4.12784 34.7653 4.27462 35.2032 4.56818C35.6436 4.86174 35.9821 5.28788 36.2189 5.84659C36.4556 6.40294 36.5728 7.07765 36.5704 7.87074C36.5704 8.66856 36.452 9.35038 36.2153 9.91619C35.9809 10.482 35.6448 10.9141 35.2068 11.2124C34.7688 11.5107 34.2444 11.6598 33.6336 11.6598ZM33.6336 10.3849C34.0503 10.3849 34.3829 10.1754 34.6315 9.75639C34.8801 9.33736 35.0032 8.70881 35.0008 7.87074C35.0008 7.31913 34.944 6.85985 34.8304 6.4929C34.7191 6.12595 34.5605 5.85014 34.3545 5.66548C34.1509 5.48082 33.9106 5.38849 33.6336 5.38849C33.2193 5.38849 32.8879 5.59564 32.6393 6.00994C32.3907 6.42424 32.2653 7.04451 32.2629 7.87074C32.2629 8.42945 32.3185 8.89583 32.4298 9.26989C32.5434 9.64157 32.7032 9.92093 32.9092 10.108C33.1152 10.2926 33.3566 10.3849 33.6336 10.3849Z" fill="#020A08"/>
</svg>
