<svg width="24" height="24" viewBox="0 0 24 24" fill="none" xmlns="http://www.w3.org/2000/svg">
<mask id="mask0_2940_5244" style="mask-type:alpha" maskUnits="userSpaceOnUse" x="0" y="0" width="24" height="24">
<rect width="24" height="24" fill="#D9D9D9"/>
</mask>
<g mask="url(#mask0_2940_5244)">
<path d="M12.2 20C11.3867 20 10.5533 19.8533 9.7 19.56C8.84667 19.2667 8.07333 18.8667 7.38 18.36C6.68667 17.8533 6.11667 17.26 5.67 16.58C5.22333 15.9 5 15.1733 5 14.4V12.8C5 12.64 5.07333 12.52 5.22 12.44C5.36667 12.36 5.50667 12.3733 5.64 12.48L7.46 13.84C7.64667 13.9867 7.75 14.1833 7.77 14.43C7.79 14.6767 7.71333 14.8867 7.54 15.06L6.96 15.64C7.34667 16.32 7.96 16.9067 8.8 17.4C9.64 17.8933 10.5067 18.2067 11.4 18.34V11.2H9.8C9.57333 11.2 9.38333 11.1233 9.23 10.97C9.07667 10.8167 9 10.6267 9 10.4C9 10.1733 9.07667 9.98333 9.23 9.83C9.38333 9.67667 9.57333 9.6 9.8 9.6H11.4V8.66C10.9333 8.48667 10.55 8.19667 10.25 7.79C9.95 7.38333 9.8 6.92 9.8 6.4C9.8 5.73333 10.0333 5.16667 10.5 4.7C10.9667 4.23333 11.5333 4 12.2 4C12.8667 4 13.4333 4.23333 13.9 4.7C14.3667 5.16667 14.6 5.73333 14.6 6.4C14.6 6.92 14.45 7.38333 14.15 7.79C13.85 8.19667 13.4667 8.48667 13 8.66V9.6H14.6C14.8267 9.6 15.0167 9.67667 15.17 9.83C15.3233 9.98333 15.4 10.1733 15.4 10.4C15.4 10.6267 15.3233 10.8167 15.17 10.97C15.0167 11.1233 14.8267 11.2 14.6 11.2H13V18.34C13.8933 18.2067 14.76 17.8933 15.6 17.4C16.44 16.9067 17.0533 16.32 17.44 15.64L16.86 15.06C16.6867 14.8867 16.61 14.6767 16.63 14.43C16.65 14.1833 16.7533 13.9867 16.94 13.84L18.76 12.48C18.8933 12.3733 19.0333 12.36 19.18 12.44C19.3267 12.52 19.4 12.64 19.4 12.8V14.4C19.4 15.1733 19.1767 15.9 18.73 16.58C18.2833 17.26 17.7133 17.8533 17.02 18.36C16.3267 18.8667 15.5533 19.2667 14.7 19.56C13.8467 19.8533 13.0133 20 12.2 20ZM12.2 7.2C12.4267 7.2 12.6167 7.12333 12.77 6.97C12.9233 6.81667 13 6.62667 13 6.4C13 6.17333 12.9233 5.98333 12.77 5.83C12.6167 5.67667 12.4267 5.6 12.2 5.6C11.9733 5.6 11.7833 5.67667 11.63 5.83C11.4767 5.98333 11.4 6.17333 11.4 6.4C11.4 6.62667 11.4767 6.81667 11.63 6.97C11.7833 7.12333 11.9733 7.2 12.2 7.2Z" fill="#697E85"/>
</g>
</svg>
