<svg width="16" height="16" viewBox="0 0 16 16" fill="none" xmlns="http://www.w3.org/2000/svg">
<g clip-path="url(#clip0_2940_4019)">
<path d="M4.31158 12.6713L4.07346 12.8284L2.20392 7.41737L8.10132 5.19824L13.9835 7.41737L12.1191 12.8284L11.886 12.6764V12.266L13.3299 7.78216L8.10639 5.81129L2.86256 7.78216L4.31158 12.2609V12.6663V12.6713Z" fill="#697E85" stroke="#697E85" stroke-width="0.65"/>
<path d="M13.7859 7.95948L8.10132 5.81128L2.39644 7.95948L1.72766 6.12034C1.68713 6.01394 1.68713 5.89235 1.72766 5.78595C1.7682 5.67956 1.84419 5.59342 1.93539 5.55796L8.10132 3.10577L14.2571 5.55289C14.3483 5.59342 14.4243 5.67449 14.4598 5.78595C14.4952 5.89235 14.4952 6.01394 14.4598 6.11527L13.7859 7.95441V7.95948ZM2.23431 6.05448L2.66497 7.24004L8.10132 5.19317L13.5174 7.24004L13.9481 6.05448L8.10132 3.72389L2.23431 6.05448Z" fill="#697E85" stroke="#697E85" stroke-width="0.65"/>
<path d="M3.1767 5.67449L3.63775 0.841051C3.67321 0.455997 3.9468 0.16214 4.26599 0.16214H11.9164C12.2356 0.16214 12.5092 0.45093 12.5447 0.841051L13.0057 5.66942L8.10133 3.71882L3.1767 5.67449ZM4.26599 0.75492C4.19506 0.75492 4.1292 0.820785 4.12413 0.911982L3.74921 4.82838L8.10133 3.10071L12.4332 4.82332L12.0583 0.911982C12.0481 0.825851 11.9873 0.75492 11.9113 0.75492H4.26599Z" fill="#697E85" stroke="#697E85" stroke-width="0.65"/>
<path d="M7.86292 5.51233H8.3493V12.5548H7.86292V5.51233Z" fill="#697E85" stroke="#697E85" stroke-width="0.65"/>
<path d="M13.9529 13.8214C13.9123 13.8214 13.8769 13.8214 13.8363 13.8214C13.3044 13.8011 12.8686 13.6238 12.6001 13.4769C12.3823 13.3604 12.2607 13.2641 12.2455 13.254C12.2455 13.254 11.9212 13.0006 11.4348 12.8841C10.7964 12.727 10.1783 12.8588 9.58555 13.2692C8.65332 13.9177 7.78694 13.8822 7.2195 13.7403C6.61152 13.5833 6.2214 13.2692 6.20113 13.259C6.20113 13.259 5.88194 13.0057 5.39556 12.8892C4.75718 12.7321 4.13907 12.8638 3.54629 13.2742C3.42976 13.3553 3.32336 13.4212 3.2119 13.482C2.35059 13.943 1.57035 13.867 1.06877 13.715C0.526652 13.5529 0.182131 13.2793 0.166931 13.2692L0.546919 12.798C0.546919 12.798 0.830642 13.0158 1.26129 13.1425C1.82874 13.3046 2.38606 13.2388 2.92311 12.95C3.00924 12.8993 3.10043 12.8486 3.1967 12.7777C4.12893 12.1292 4.9953 12.1647 5.56275 12.3116C6.17073 12.4687 6.56085 12.7828 6.58112 12.7929C6.58112 12.7929 6.90031 13.0462 7.38669 13.1628C8.02507 13.3198 8.64318 13.1881 9.23596 12.7777C10.1682 12.1292 11.0346 12.1647 11.602 12.3065C12.1948 12.4585 12.5799 12.7574 12.6153 12.7878C12.6153 12.7878 12.7116 12.8638 12.8788 12.95C13.3348 13.1932 14.2467 13.487 15.2752 12.7726L15.6198 13.2692C15.0878 13.639 14.5254 13.8265 13.9478 13.8265L13.9529 13.8214Z" fill="#697E85" stroke="#697E85" stroke-width="0.5"/>
<path d="M7.90853 15.8733C7.65014 15.8733 7.41708 15.8379 7.22455 15.7872C6.61657 15.6301 6.22645 15.316 6.20619 15.3059C6.20619 15.3059 5.887 15.0525 5.40061 14.936C4.76223 14.779 4.14412 14.9107 3.55134 15.3211C3.43481 15.4021 3.32841 15.468 3.21695 15.5288L2.93323 14.9968C3.01936 14.9461 3.11056 14.8904 3.20682 14.8246C4.13905 14.176 5.00543 14.2115 5.57287 14.3584C6.18085 14.5155 6.57097 14.8296 6.59124 14.8398C6.59124 14.8398 6.91043 15.0931 7.39681 15.2096C8.03519 15.3667 8.65331 15.2349 9.24609 14.8246C10.1783 14.176 11.0447 14.2115 11.6121 14.3534C12.2049 14.5054 12.59 14.8043 12.6254 14.8347C12.6254 14.8347 12.7217 14.9107 12.8889 14.9968L12.6052 15.5288C12.3924 15.4123 12.2607 15.316 12.2505 15.3059C12.2505 15.3059 11.9263 15.0525 11.4399 14.936C10.8015 14.779 10.1834 14.9107 9.59061 15.3211C8.98263 15.7467 8.39998 15.8784 7.9136 15.8784L7.90853 15.8733Z" fill="#697E85" stroke="#697E85" stroke-width="0.5"/>
</g>
<defs>
<clipPath id="clip0_2940_4019">
<rect width="15.8024" height="16" fill="white"/>
</clipPath>
</defs>
</svg>
